<svg width="100%" height="100%" style="overflow:visible;" preserveAspectRatio="none" viewBox="0 0 64.02 76" fill="none" xmlns="http://www.w3.org/2000/svg"><g clip-path="url(#clip0_1_176)"><path d="M50.82 46.5098C50.82 45.372 50.4289 44.3765 49.6467 43.5231C48.8645 42.6698 47.9045 42.2431 46.7667 42.2431H34.18C35.0333 40.1098 35.46 37.9054 35.46 35.6298C35.46 33.3542 35.0333 31.1498 34.18 29.0165H33.9667C33.6822 28.3054 33.22 27.772 32.58 27.4165C31.94 27.0609 31.2289 26.9187 30.4467 26.9898C29.6645 27.0609 28.9889 27.3098 28.42 27.7365C27.8511 28.1631 27.4245 28.6609 27.14 29.2298L26.7133 33.9231C26.2867 36.3409 25.0067 38.4031 22.8733 40.1098C22.02 40.3942 20.1 41.9587 17.1133 44.8031V44.5898C17.1133 44.0209 16.9 43.5587 16.4733 43.2031C16.0467 42.8476 15.5489 42.6698 14.98 42.6698H4.52667C3.95778 42.6698 3.46001 42.8476 3.03334 43.2031C2.60667 43.5587 2.39334 44.0209 2.39334 44.5898V65.7098C2.39334 66.2787 2.60667 66.7409 3.03334 67.0965C3.46001 67.452 3.95778 67.6298 4.52667 67.6298H14.98C15.5489 67.6298 16.0467 67.452 16.4733 67.0965C16.9 66.7409 17.1133 66.2787 17.1133 65.7098V65.4965C18.5356 65.7809 19.7089 66.172 20.6333 66.6698C21.5578 67.1676 22.4111 67.772 23.1933 68.4831C23.9756 69.1942 24.8645 69.5498 25.86 69.5498H42.0733C42.9267 69.5498 43.6733 69.3365 44.3133 68.9098C44.9533 68.4831 45.4511 67.9142 45.8067 67.2031C46.1622 66.492 46.3045 65.7098 46.2333 64.8565C46.1622 64.0031 45.8422 63.292 45.2733 62.7231C45.9845 62.2965 46.5178 61.7631 46.8733 61.1231C47.2289 60.4831 47.4067 59.7365 47.4067 58.8831C47.4067 58.0298 47.1222 57.2476 46.5533 56.5365C47.2645 56.1098 47.8333 55.5765 48.26 54.9365C48.6867 54.2965 48.9 53.5498 48.9 52.6965C48.9 51.8431 48.6156 51.0609 48.0467 50.3498C48.9 50.0654 49.5756 49.5676 50.0733 48.8565C50.5711 48.1454 50.82 47.3631 50.82 46.5098ZM15.1933 65.7098C15.1933 65.7098 15.1222 65.7098 14.98 65.7098H4.52667V44.5898H14.98H15.1933V65.7098ZM46.7667 48.6431H43.14C42.8556 48.6431 42.6422 48.7498 42.5 48.9631C42.3578 49.1765 42.2867 49.3898 42.2867 49.6031C42.2867 49.8165 42.3578 50.0298 42.5 50.2431C42.6422 50.4565 42.8556 50.5631 43.14 50.5631H44.8467C45.4156 50.5631 45.9133 50.7765 46.34 51.2031C46.7667 51.6298 46.98 52.1276 46.98 52.6965C46.98 53.2654 46.7311 53.7987 46.2333 54.2965C45.7356 54.7942 45.2378 55.0076 44.74 54.9365C44.2422 54.8654 43.8156 54.8298 43.46 54.8298C43.1045 54.8298 42.82 54.9365 42.6067 55.1498C42.3933 55.3631 42.2867 55.612 42.2867 55.8965C42.2867 56.1809 42.3933 56.4298 42.6067 56.6431C42.82 56.8565 43.0689 56.9631 43.3533 56.9631C43.6378 56.9631 43.8511 56.9631 43.9933 56.9631L44.2067 57.1765C45.06 57.4609 45.4867 58.1009 45.4867 59.0965C45.4867 59.6654 45.2378 60.1631 44.74 60.5898C44.2422 61.0165 43.78 61.2298 43.3533 61.2298C42.9267 61.2298 42.5356 61.2298 42.18 61.2298C41.8245 61.2298 41.54 61.3365 41.3267 61.5498C41.1133 61.7631 41.0067 62.012 41.0067 62.2965C41.0067 62.5809 41.1133 62.7942 41.3267 62.9365C41.54 63.0787 41.7889 63.1498 42.0733 63.1498L42.7133 63.3631C43.2822 63.5054 43.7089 63.7898 43.9933 64.2165C44.2778 64.6431 44.3489 65.1409 44.2067 65.7098C44.0645 66.2787 43.8156 66.7409 43.46 67.0965C43.1045 67.452 42.6422 67.6298 42.0733 67.6298H25.86C25.2911 67.6298 24.8645 67.4165 24.58 66.9898C23.5845 65.9942 22.5178 65.2476 21.38 64.7498C20.2422 64.252 18.82 63.8609 17.1133 63.5765V47.5765L17.3267 47.3631C20.8822 43.9498 23.0156 42.1009 23.7267 41.8165H24.1533C26.5711 39.8254 28.0645 37.2654 28.6333 34.1365L28.8467 30.0831C29.2733 29.372 29.8422 29.0165 30.5533 29.0165C31.2645 29.0165 31.8333 29.3009 32.26 29.8698C33.1133 32.0031 33.4689 34.2076 33.3267 36.4831C33.1845 38.7587 32.6156 40.892 31.62 42.8831C31.4778 43.1676 31.5133 43.4876 31.7267 43.8431C31.94 44.1987 32.1889 44.3765 32.4733 44.3765H46.7667C47.3356 44.3765 47.8333 44.5542 48.26 44.9098C48.6867 45.2654 48.9 45.7631 48.9 46.4031C48.9 47.0431 48.6867 47.5765 48.26 48.0031C47.8333 48.4298 47.3356 48.6431 46.7667 48.6431ZM11.78 47.7898V48.0031C11.78 48.2876 11.6733 48.5365 11.46 48.7498C11.2467 48.9631 10.9978 49.0698 10.7133 49.0698C10.4289 49.0698 10.18 48.9631 9.96667 48.7498C9.75334 48.5365 9.64667 48.2876 9.64667 48.0031V47.7898C9.64667 47.5054 9.75334 47.292 9.96667 47.1498C10.18 47.0076 10.4289 46.9365 10.7133 46.9365C10.9978 46.9365 11.2467 47.0076 11.46 47.1498C11.6733 47.292 11.78 47.5054 11.78 47.7898ZM41.6467 14.0831C41.5045 13.6565 41.22 13.4431 40.7933 13.4431L33.7533 12.8031L30.7667 6.1898C30.6245 5.76314 30.34 5.5498 29.9133 5.5498C29.4867 5.5498 29.2022 5.76314 29.06 6.1898L26.0733 12.8031L19.0333 13.4431C18.6067 13.4431 18.3222 13.6565 18.18 14.0831C18.0378 14.5098 18.1089 14.8654 18.3933 15.1498L23.7267 19.8431L22.2333 26.8831C22.0911 27.3098 22.1978 27.6654 22.5533 27.9498C22.9089 28.2342 23.3 28.2342 23.7267 27.9498L29.9133 24.3231L36.1 27.9498C36.5267 28.2342 36.9178 28.2342 37.2733 27.9498C37.6289 27.6654 37.7356 27.3098 37.5933 26.8831L36.1 19.8431L41.4333 15.1498C41.7178 14.8654 41.7889 14.5098 41.6467 14.0831ZM34.18 18.7765C33.8956 19.0609 33.8245 19.4165 33.9667 19.8431L35.0333 25.1765L30.34 22.4031C30.0556 22.1187 29.7711 22.1187 29.4867 22.4031L24.7933 25.1765L25.86 19.8431C26.0022 19.4165 25.9311 19.0609 25.6467 18.7765L21.38 15.1498L26.9267 14.7231C27.3533 14.7231 27.6378 14.5098 27.78 14.0831L29.9133 8.96313L32.0467 14.0831C32.1889 14.5098 32.4733 14.7231 32.9 14.7231L38.4467 15.1498L34.18 18.7765ZM59.3533 20.0565C59.2111 19.6298 58.9267 19.3454 58.5 19.2031L53.38 18.7765L51.46 14.0831C51.1756 13.7987 50.82 13.6565 50.3933 13.6565C49.9667 13.6565 49.6822 13.7987 49.54 14.0831L47.62 18.7765L42.5 19.2031C42.0733 19.3454 41.7889 19.6298 41.6467 20.0565C41.5045 20.4831 41.5756 20.8387 41.86 21.1231L45.7 24.3231L44.6333 29.4431C44.4911 29.8698 44.5978 30.1898 44.9533 30.4031C45.3089 30.6165 45.7 30.652 46.1267 30.5098L50.3933 27.7365L54.8733 30.5098C55.3 30.652 55.6911 30.6165 56.0467 30.4031C56.4022 30.1898 56.5089 29.8698 56.3667 29.4431L55.3 24.3231L58.9267 21.1231C59.3533 20.8387 59.4956 20.4831 59.3533 20.0565ZM53.38 23.2565C53.0956 23.5409 53.0245 23.8965 53.1667 24.3231L53.8067 27.5231L51.0333 25.8165C50.6067 25.6742 50.2511 25.6742 49.9667 25.8165L46.98 27.5231L47.8333 24.3231C47.9756 23.8965 47.8333 23.5409 47.4067 23.2565L45.06 21.1231L48.26 20.6965C48.6867 20.6965 48.9711 20.4831 49.1133 20.0565L50.3933 17.0698L51.8867 20.0565C52.0289 20.4831 52.3133 20.6965 52.74 20.6965L55.94 21.1231L53.38 23.2565ZM17.3267 19.2031L12.2067 18.7765L10.2867 14.0831C10.1445 13.7987 9.86001 13.6565 9.43334 13.6565C9.00667 13.6565 8.65112 13.7987 8.36667 14.0831L6.44667 18.7765L1.32667 19.2031C0.900006 19.3454 0.615561 19.6298 0.473339 20.0565C0.331117 20.4831 0.473339 20.8387 0.900006 21.1231L4.52667 24.3231L3.46001 29.4431C3.46001 29.8698 3.60223 30.1898 3.88667 30.4031C4.17112 30.6165 4.52667 30.652 4.95334 30.5098L9.43334 27.7365L13.7 30.5098C14.1267 30.652 14.5178 30.6165 14.8733 30.4031C15.2289 30.1898 15.3356 29.8698 15.1933 29.4431L14.1267 24.3231L17.9667 21.1231C18.2511 20.8387 18.3222 20.4831 18.18 20.0565C18.0378 19.6298 17.7533 19.3454 17.3267 19.2031ZM12.42 23.2565C11.9933 23.5409 11.8511 23.8965 11.9933 24.3231L12.8467 27.5231L9.86001 25.8165C9.57556 25.6742 9.22001 25.6742 8.79334 25.8165L6.02001 27.5231L6.66001 24.3231C6.80223 23.8965 6.73112 23.5409 6.44667 23.2565L3.88667 21.1231L7.30001 20.6965C7.58445 20.6965 7.79778 20.4831 7.94001 20.0565L9.43334 17.0698L10.7133 20.0565C10.8556 20.4831 11.14 20.6965 11.5667 20.6965L14.7667 21.1231L12.42 23.2565Z" fill="#E9A233"/></g><defs><clipPath id="clip0_1_176"><rect width="64.02" height="64" fill="white" transform="matrix(1 0 0 -1 0.410004 69.5498)"/></clipPath></defs></svg>