<svg width="100%" height="100%" style="overflow:visible;" preserveAspectRatio="none" viewBox="0 0 62.02 82" fill="none" xmlns="http://www.w3.org/2000/svg"><g clip-path="url(#clip0_1_245)"><path d="M47.435 46.9799C48.2616 46.9799 48.9505 46.7043 49.5016 46.1532C50.0527 45.6021 50.3283 44.9132 50.3283 44.0865C50.3283 43.2599 50.0527 42.571 49.5016 42.0199C48.9505 41.4688 48.2616 41.1932 47.435 41.1932C46.6083 41.1932 45.9194 41.4688 45.3683 42.0199C44.8172 42.571 44.5416 43.2599 44.5416 44.0865C44.5416 44.9132 44.8172 45.6021 45.3683 46.1532C45.9194 46.7043 46.6083 46.9799 47.435 46.9799ZM47.435 43.0532C47.7105 43.0532 47.9172 43.1565 48.055 43.3632C48.1927 43.5699 48.2616 43.811 48.2616 44.0865C48.2616 44.3621 48.1927 44.6032 48.055 44.8099C47.9172 45.0165 47.7105 45.1199 47.435 45.1199C47.1594 45.1199 46.9183 45.0165 46.7116 44.8099C46.505 44.6032 46.4016 44.3621 46.4016 44.0865C46.4016 43.811 46.505 43.5699 46.7116 43.3632C46.9183 43.1565 47.1594 43.0532 47.435 43.0532ZM57.1483 39.9532C56.8727 39.2643 57.0105 38.5754 57.5616 37.8865L59.0083 36.4399L54.875 32.5132L53.4283 33.7532C52.8772 34.4421 52.2227 34.6143 51.465 34.2699C50.7072 33.9254 50.3283 33.3399 50.3283 32.5132V30.4465H48.2616C48.1239 28.931 47.8483 27.4843 47.435 26.1065L58.595 14.7399C60.1105 13.2243 60.8683 11.3988 60.8683 9.2632C60.8683 7.12764 60.1105 5.30209 58.595 3.78653C57.0794 2.27098 55.2539 1.5132 53.1183 1.5132C50.9827 1.5132 49.1572 2.27098 47.6416 3.78653L36.4816 14.9465C34.9661 14.3954 33.3816 14.1199 31.7283 14.1199C31.0394 12.8799 30.1094 11.9154 28.9383 11.2265C27.7672 10.5376 26.4927 10.1932 25.115 10.1932C24.4261 10.1932 23.7372 10.2621 23.0483 10.3999C22.0839 8.88431 20.8439 7.64431 19.3283 6.67987C17.8127 5.71542 16.1594 5.2332 14.3683 5.2332C11.7505 5.2332 9.47719 6.19765 7.5483 8.12653C5.61941 10.0554 4.65497 12.3288 4.65497 14.9465C4.65497 15.7732 4.79274 16.531 5.0683 17.2199C3.8283 17.6332 2.82941 18.3221 2.07163 19.2865C1.31386 20.251 0.934967 21.4221 0.934967 22.7999C0.934967 24.3154 1.48608 25.6588 2.5883 26.8299C3.69052 28.001 5.0683 28.5865 6.72163 28.5865H13.7483C13.6105 29.551 13.5416 30.5154 13.5416 31.4799C13.5416 33.4088 13.8861 35.1999 14.575 36.8532L5.89497 45.5332L1.14163 57.9332C1.00386 58.2088 0.934967 58.5532 0.934967 58.9665C0.934967 59.6554 1.17608 60.241 1.6583 60.7232C2.14052 61.2054 2.72608 61.4465 3.41497 61.4465C3.8283 61.4465 4.17274 61.3776 4.4483 61.2399L16.8483 56.4865L23.255 50.2865L23.0483 50.9065C23.0483 51.5954 23.3239 52.2154 23.875 52.7665C23.3239 53.3176 23.0827 53.9376 23.1516 54.6265C23.2205 55.3154 23.4272 55.9354 23.7716 56.4865C24.1161 57.0376 24.6327 57.3821 25.3216 57.5199C25.735 58.7599 26.4583 59.7243 27.4916 60.4132C28.525 61.1021 29.6616 61.4465 30.9016 61.4465C32.1416 61.4465 33.2783 61.1021 34.3116 60.4132C35.345 59.7243 36.0683 58.7599 36.4816 57.5199C37.1705 57.3821 37.7216 57.0376 38.135 56.4865C38.5483 55.9354 38.755 55.3843 38.755 54.8332L38.5483 54.4199L39.7883 55.6599L41.235 54.2132C41.7861 53.6621 42.475 53.5588 43.3016 53.9032C44.1283 54.2476 44.5416 54.8332 44.5416 55.6599V57.7265H50.3283V55.6599C50.3283 54.8332 50.7072 54.2476 51.465 53.9032C52.2227 53.5588 52.8772 53.6621 53.4283 54.2132L54.875 55.6599L59.0083 51.5265L57.5616 50.2865C57.0105 49.5976 56.9072 48.8743 57.2516 48.1165C57.5961 47.3588 58.1816 46.9799 59.0083 46.9799H60.8683V41.1932H59.0083C58.1816 41.1932 57.5616 40.7799 57.1483 39.9532ZM42.6816 42.8465C44.0594 41.4688 45.0927 40.3665 45.7816 39.5399C46.3327 39.2643 46.8839 39.1265 47.435 39.1265C48.675 39.1265 49.7772 39.6088 50.7416 40.5732C51.7061 41.5376 52.1883 42.7088 52.1883 44.0865C52.1883 45.4643 51.7061 46.601 50.7416 47.4965C49.7772 48.3921 48.6405 48.8399 47.3316 48.8399C46.0227 48.8399 44.8861 48.3921 43.9216 47.4965C42.9572 46.601 42.475 45.4643 42.475 44.0865C42.475 43.6732 42.5439 43.2599 42.6816 42.8465ZM43.9216 19.9065L48.2616 15.3599L51.775 18.8732L46.6083 24.0399C45.9194 22.5243 45.0239 21.1465 43.9216 19.9065ZM44.955 9.15987L46.4016 7.7132L54.6683 15.9799L53.2216 17.4265L44.955 9.15987ZM53.015 3.3732C54.6683 3.3732 56.0805 3.95876 57.2516 5.12987C58.4227 6.30098 59.0083 7.67876 59.0083 9.2632C59.0083 10.8476 58.4572 12.2599 57.355 13.4999L56.115 14.5332L47.8483 6.26653L48.8816 5.02654C50.1216 3.92431 51.4994 3.3732 53.015 3.3732ZM43.5083 10.6065L47.0216 14.1199L42.475 18.4599C41.235 17.3576 39.8572 16.4621 38.3416 15.7732L43.5083 10.6065ZM46.4016 31.4799C46.4016 33.6843 45.8505 35.6821 44.7483 37.4732C44.1972 38.5754 43.0261 39.9532 41.235 41.6065C39.995 42.8465 39.0994 43.811 38.5483 44.4999C37.5839 45.6021 36.8261 46.7732 36.275 48.0132H31.935V43.0532C31.935 42.2265 31.625 41.5376 31.005 40.9865C30.385 40.4354 29.7305 40.1599 29.0416 40.1599H26.975C26.6994 40.1599 26.4927 40.0565 26.355 39.8499C26.2172 39.6432 26.1483 39.4365 26.1483 39.2299C26.1483 39.0232 26.2172 38.8165 26.355 38.6099C26.4927 38.4032 26.6994 38.2999 26.975 38.2999H36.6883C37.515 38.2999 38.2039 38.0243 38.755 37.4732C39.3061 36.9221 39.5816 36.2332 39.5816 35.4065C39.5816 34.5799 39.3061 33.891 38.755 33.3399C38.2039 32.7888 37.515 32.5132 36.6883 32.5132H29.0416C28.7661 32.5132 28.525 32.4099 28.3183 32.2032C28.1116 31.9965 28.0083 31.7554 28.0083 31.4799V28.5865H32.7616C34.1394 28.5865 35.3105 28.1043 36.275 27.1399C37.2394 26.1754 37.7216 25.0388 37.7216 23.7299C37.7216 22.421 37.2394 21.2843 36.275 20.3199C35.3105 19.3554 34.1394 18.8732 32.7616 18.8732V17.8399C32.7616 17.2888 32.6927 16.6688 32.555 15.9799C35.1727 16.3932 37.515 17.3232 39.5816 18.7699C41.6483 20.2165 43.3016 22.0421 44.5416 24.2465C45.7816 26.451 46.4016 28.8621 46.4016 31.4799ZM25.115 50.9065C25.115 50.631 25.2183 50.3899 25.425 50.1832C25.6316 49.9765 25.8727 49.8732 26.1483 49.8732H35.655C35.9305 49.8732 36.1716 49.9765 36.3783 50.1832C36.585 50.3899 36.6883 50.631 36.6883 50.9065C36.6883 51.1821 36.585 51.3888 36.3783 51.5265C36.1716 51.6643 35.9305 51.7332 35.655 51.7332H26.1483C25.8727 51.7332 25.6316 51.6643 25.425 51.5265C25.2183 51.3888 25.115 51.1821 25.115 50.9065ZM12.9216 50.9065L19.9483 43.6732C21.4639 45.1888 22.4972 46.4976 23.0483 47.5999L16.435 54.4199L12.9216 50.9065ZM2.79497 22.7999C2.79497 21.6976 3.17386 20.7676 3.93163 20.0099C4.68941 19.2521 5.61941 18.8732 6.72163 18.8732C7.82386 18.8732 8.75386 19.2521 9.51163 20.0099C10.2694 20.7676 10.6483 21.6976 10.6483 22.7999H12.5083C12.5083 21.2843 11.9572 19.941 10.855 18.7699C9.75274 17.5988 8.44386 17.0132 6.9283 17.0132C6.79052 16.3243 6.72163 15.6354 6.72163 14.9465C6.72163 12.8799 7.47941 11.0888 8.99497 9.5732C10.5105 8.05764 12.3016 7.29987 14.3683 7.29987C15.8839 7.29987 17.2272 7.64431 18.3983 8.3332C19.5694 9.02209 20.4994 9.98653 21.1883 11.2265C20.0861 11.7776 19.225 12.5699 18.605 13.6032C17.985 14.6365 17.6061 15.7732 17.4683 17.0132C16.5039 17.2888 15.7461 17.771 15.195 18.4599C14.6439 19.1488 14.3683 19.9065 14.3683 20.7332H16.435C16.435 20.3199 16.6072 19.9065 16.9516 19.4932C17.2961 19.0799 17.7439 18.8732 18.295 18.8732C18.8461 18.8732 19.2939 19.0799 19.6383 19.4932C19.9827 19.9065 20.155 20.3199 20.155 20.7332H22.2216C22.2216 19.9065 21.9461 19.1488 21.395 18.4599C20.8439 17.771 20.155 17.2888 19.3283 17.0132C19.6039 15.6354 20.2583 14.4643 21.2916 13.4999C22.325 12.5354 23.6339 12.0532 25.2183 12.0532C26.8027 12.0532 28.1461 12.6388 29.2483 13.8099C30.3505 14.981 30.9016 16.3243 30.9016 17.8399C30.9016 18.391 30.8327 18.9421 30.695 19.4932C29.8683 19.9065 29.2139 20.4921 28.7316 21.2499C28.2494 22.0076 28.0083 22.7999 28.0083 23.6265H29.8683C29.8683 22.9376 30.1783 22.2832 30.7983 21.6632C31.4183 21.0432 32.1072 20.7332 32.865 20.7332C33.6227 20.7332 34.2772 21.0432 34.8283 21.6632C35.3794 22.2832 35.655 22.9721 35.655 23.7299C35.655 24.4876 35.3794 25.1765 34.8283 25.7965C34.2772 26.4165 33.5883 26.7265 32.7616 26.7265H6.72163C5.61941 26.7265 4.68941 26.3476 3.93163 25.5899C3.17386 24.8321 2.79497 23.9021 2.79497 22.7999ZM26.1483 28.5865V31.4799C26.1483 32.3065 26.4239 32.9954 26.975 33.5465C27.5261 34.0976 28.215 34.3732 29.0416 34.3732H36.6883C36.9639 34.3732 37.205 34.4765 37.4116 34.6832C37.6183 34.8899 37.7216 35.131 37.7216 35.4065C37.7216 35.6821 37.6183 35.8888 37.4116 36.0265C37.205 36.1643 36.9639 36.2332 36.6883 36.2332H26.975C26.1483 36.2332 25.4594 36.5432 24.9083 37.1632C24.3572 37.7832 24.0816 38.4721 24.0816 39.2299C24.0816 39.9876 24.3572 40.6765 24.9083 41.2965C25.4594 41.9165 26.1483 42.2265 26.975 42.2265H29.0416C29.3172 42.2265 29.5239 42.2954 29.6616 42.4332C29.7994 42.571 29.8683 42.7776 29.8683 43.0532V48.0132H25.5283C24.9772 46.7732 24.2194 45.6021 23.255 44.4999C22.7039 43.811 21.8083 42.8465 20.5683 41.6065C18.7772 39.9532 17.6061 38.5754 17.055 37.4732C15.9527 35.6821 15.4016 33.6843 15.4016 31.4799C15.4016 30.6532 15.4705 29.6888 15.6083 28.5865H26.1483ZM18.7083 42.4332L11.475 49.4599L7.96163 45.9465L15.4016 38.7132C16.0905 39.6776 17.1927 40.9176 18.7083 42.4332ZM7.13497 47.8065L14.575 55.2465L8.1683 57.7265L4.65497 54.2132L7.13497 47.8065ZM3.62163 59.5865C3.48386 59.5865 3.31163 59.5176 3.10497 59.3799C2.8983 59.2421 2.79497 59.1043 2.79497 58.9665L3.8283 56.0732L6.3083 58.5532L3.62163 59.5865ZM30.9016 59.5865C30.2127 59.5865 29.5583 59.4143 28.9383 59.0699C28.3183 58.7254 27.8016 58.2776 27.3883 57.7265H34.415C34.0016 58.2776 33.485 58.7254 32.865 59.0699C32.245 59.4143 31.5905 59.5865 30.9016 59.5865ZM35.655 55.6599H26.1483C25.8727 55.6599 25.6316 55.5565 25.425 55.3499C25.2183 55.1432 25.115 54.9365 25.115 54.7299C25.115 54.5232 25.2183 54.3165 25.425 54.1099C25.6316 53.9032 25.8727 53.7999 26.1483 53.7999H35.655C35.9305 53.7999 36.1716 53.9032 36.3783 54.1099C36.585 54.3165 36.6883 54.5232 36.6883 54.7299C36.6883 54.9365 36.585 55.1432 36.3783 55.3499C36.1716 55.5565 35.9305 55.6599 35.655 55.6599ZM59.0083 45.1199C58.1816 45.1199 57.4583 45.3265 56.8383 45.7399C56.2183 46.1532 55.7361 46.7043 55.3916 47.3932C55.0472 48.0821 54.9783 48.8054 55.185 49.5632C55.3916 50.321 55.7705 50.9754 56.3216 51.5265L54.875 52.9732C54.3239 52.4221 53.6694 52.0776 52.9116 51.9399C52.1539 51.8021 51.4305 51.871 50.7416 52.1465C50.0527 52.4221 49.4672 52.8699 48.985 53.4899C48.5027 54.1099 48.2616 54.8332 48.2616 55.6599H46.4016C46.4016 54.8332 46.195 54.1099 45.7816 53.4899C45.3683 52.8699 44.7827 52.4221 44.025 52.1465C43.2672 51.871 42.5094 51.8021 41.7516 51.9399C40.9939 52.0776 40.3394 52.4221 39.7883 52.9732L38.5483 51.7332V50.9065C38.6861 50.2176 38.4794 49.5976 37.9283 49.0465C38.4794 47.6688 39.375 46.291 40.615 44.9132C40.8905 46.5665 41.6483 47.9788 42.8883 49.1499C44.1283 50.321 45.6439 50.9065 47.435 50.9065C49.2261 50.9065 50.8105 50.2521 52.1883 48.9432C53.5661 47.6343 54.255 46.0154 54.255 44.0865C54.255 42.1576 53.5661 40.5388 52.1883 39.2299C50.8105 37.921 49.2261 37.2665 47.435 37.2665H47.0216C47.7105 35.8888 48.1239 34.3043 48.2616 32.5132C48.2616 33.3399 48.5027 34.0632 48.985 34.6832C49.4672 35.3032 50.0527 35.751 50.7416 36.0265C51.4305 36.3021 52.1539 36.371 52.9116 36.2332C53.6694 36.0954 54.3239 35.751 54.875 35.1999L56.3216 36.6465C55.7705 37.1976 55.4261 37.8521 55.2883 38.6099C55.1505 39.3676 55.2194 40.091 55.495 40.7799C55.7705 41.4688 56.2183 42.0199 56.8383 42.4332C57.4583 42.8465 58.1816 43.0532 59.0083 43.0532V45.1199Z" fill="#E9A233"/></g><defs><clipPath id="clip0_1_245"><rect width="62.02" height="62" fill="white" transform="matrix(1 0 0 -1 0.924973 62.48)"/></clipPath></defs></svg>