<svg width="100%" height="100%" style="overflow:visible;" preserveAspectRatio="none" viewBox="0 0 197.5 68" fill="none" xmlns="http://www.w3.org/2000/svg"><path d="M14.4767 51.7033H16.75C16.8878 52.3922 17.2322 52.9089 17.7833 53.2533C18.3344 53.5977 18.9544 53.77 19.6433 53.77C20.3322 53.77 20.9522 53.4944 21.5033 52.9433C22.0544 52.3922 22.33 51.7033 22.33 50.8766C22.33 50.05 22.0544 49.3611 21.5033 48.81C20.9522 48.2589 20.3322 47.9833 19.6433 47.9833C18.9544 47.9833 18.3344 48.1555 17.7833 48.5C17.2322 48.8444 16.8878 49.2922 16.75 49.8433H14.4767C14.2011 49.2922 13.8222 48.8444 13.34 48.5C12.8578 48.1555 12.2722 47.9833 11.5833 47.9833C10.8944 47.9833 10.2744 48.2589 9.72333 48.81C9.17222 49.3611 8.89666 50.05 8.89666 50.8766C8.89666 51.7033 9.17222 52.3922 9.72333 52.9433C10.2744 53.4944 10.8944 53.77 11.5833 53.77C12.2722 53.77 12.8578 53.5977 13.34 53.2533C13.8222 52.9089 14.2011 52.3922 14.4767 51.7033ZM19.4367 49.8433C19.7122 49.8433 19.9533 49.9466 20.16 50.1533C20.3667 50.36 20.47 50.6011 20.47 50.8766C20.47 51.1522 20.3667 51.3589 20.16 51.4966C19.9533 51.6344 19.7122 51.7033 19.4367 51.7033C19.1611 51.7033 18.92 51.6344 18.7133 51.4966C18.5067 51.3589 18.4033 51.1522 18.4033 50.8766C18.4033 50.6011 18.5067 50.36 18.7133 50.1533C18.92 49.9466 19.1611 49.8433 19.4367 49.8433ZM10.7567 50.8766C10.7567 50.6011 10.86 50.36 11.0667 50.1533C11.2733 49.9466 11.5144 49.8433 11.79 49.8433C12.0655 49.8433 12.2722 49.9466 12.41 50.1533C12.5478 50.36 12.6167 50.6011 12.6167 50.8766C12.6167 51.1522 12.5478 51.3589 12.41 51.4966C12.2722 51.6344 12.0655 51.7033 11.79 51.7033C11.5144 51.7033 11.2733 51.6344 11.0667 51.4966C10.86 51.3589 10.7567 51.1522 10.7567 50.8766ZM47.75 47.9833C47.8878 48.5344 48.2322 48.9822 48.7833 49.3266C49.3344 49.6711 49.9544 49.8433 50.6433 49.8433C51.3322 49.8433 51.9522 49.5677 52.5033 49.0166C53.0544 48.4655 53.33 47.7766 53.33 46.95C53.33 46.1233 53.0544 45.4344 52.5033 44.8833C51.9522 44.3322 51.3322 44.0566 50.6433 44.0566C49.9544 44.0566 49.3344 44.2289 48.7833 44.5733C48.2322 44.9177 47.8878 45.3655 47.75 45.9166H41.7567C41.4811 45.9166 41.24 46.02 41.0333 46.2266C40.8267 46.4333 40.7233 46.6744 40.7233 46.95V51.91C40.1722 52.1855 39.7244 52.5644 39.38 53.0466C39.0355 53.5289 38.8633 54.1144 38.8633 54.8033C38.8633 55.4922 39.1389 56.1466 39.69 56.7666C40.2411 57.3866 40.93 57.6966 41.7567 57.6966C42.5833 57.6966 43.2722 57.3866 43.8233 56.7666C44.3744 56.1466 44.65 55.4922 44.65 54.8033C44.65 54.1144 44.4778 53.5289 44.1333 53.0466C43.7889 52.5644 43.3411 52.1855 42.79 51.91V47.9833H47.75ZM50.4367 45.9166C50.7122 45.9166 50.9533 46.02 51.16 46.2266C51.3667 46.4333 51.47 46.6744 51.47 46.95C51.47 47.2255 51.3667 47.4666 51.16 47.6733C50.9533 47.88 50.7122 47.9833 50.4367 47.9833C50.1611 47.9833 49.92 47.88 49.7133 47.6733C49.5067 47.4666 49.4033 47.2255 49.4033 46.95C49.4033 46.6744 49.5067 46.4333 49.7133 46.2266C49.92 46.02 50.1611 45.9166 50.4367 45.9166ZM41.7567 55.63C41.4811 55.63 41.24 55.5266 41.0333 55.32C40.8267 55.1133 40.7233 54.9066 40.7233 54.7C40.7233 54.4933 40.8267 54.2866 41.0333 54.08C41.24 53.8733 41.4811 53.77 41.7567 53.77C42.0322 53.77 42.2733 53.8733 42.48 54.08C42.6867 54.2866 42.79 54.4933 42.79 54.7C42.79 54.9066 42.6867 55.1133 42.48 55.32C42.2733 55.5266 42.0322 55.63 41.7567 55.63ZM29.15 2.30997C23.9144 2.30997 19.0578 3.61885 14.58 6.23663C10.1022 8.85441 6.55444 12.4022 3.93666 16.88C1.31888 21.3577 0.00999451 26.2144 0.00999451 31.45C0.00999451 31.7255 0.113328 31.9666 0.319995 32.1733C0.526661 32.38 0.767772 32.4833 1.04333 32.4833H14.6833V35.5833C13.7189 35.8589 13.0989 36.41 12.8233 37.2366H8.27666L5.58999 34.55C5.45222 34.4122 5.24555 34.3433 4.96999 34.3433H1.04333V36.2033H4.55666L7.24333 38.89C7.38111 39.1655 7.58777 39.3033 7.86333 39.3033H12.8233C13.0989 40.13 13.7189 40.6811 14.6833 40.9566V43.0233H8.68999C8.41444 42.4722 8.03555 42.0244 7.55333 41.68C7.07111 41.3355 6.48555 41.1633 5.79666 41.1633C5.10777 41.1633 4.45333 41.4389 3.83333 41.99C3.21333 42.5411 2.90333 43.23 2.90333 44.0566C2.90333 44.8833 3.21333 45.5722 3.83333 46.1233C4.45333 46.6744 5.10777 46.95 5.79666 46.95C6.48555 46.95 7.07111 46.7777 7.55333 46.4333C8.03555 46.0889 8.41444 45.6411 8.68999 45.09H15.51C15.7856 45.09 16.0267 44.9866 16.2333 44.78C16.44 44.5733 16.5433 44.3322 16.5433 44.0566V40.9566C17.0944 40.8189 17.5422 40.4744 17.8867 39.9233C18.2311 39.3722 18.4033 38.7866 18.4033 38.1666C18.4033 37.5466 18.2311 36.9955 17.8867 36.5133C17.5422 36.0311 17.0944 35.7211 16.5433 35.5833V32.4833H20.47V43.0233C20.47 43.2989 20.5389 43.5744 20.6767 43.85L24.3967 47.3633V54.8033C23.7078 55.0789 23.1911 55.4577 22.8467 55.94C22.5022 56.4222 22.33 57.0077 22.33 57.6966C22.33 58.3855 22.6055 59.04 23.1567 59.66C23.7078 60.28 24.3967 60.59 25.2233 60.59C26.05 60.59 26.7389 60.28 27.29 59.66C27.8411 59.04 28.1167 58.3855 28.1167 57.6966C28.1167 57.0077 27.9444 56.4222 27.6 55.94C27.2556 55.4577 26.8078 55.0789 26.2567 54.8033V47.3633L27.91 45.71C28.0478 45.5722 28.1167 45.3655 28.1167 45.09V39.9233C28.6678 39.7855 29.15 39.4755 29.5633 38.9933C29.9767 38.5111 30.1833 37.96 30.1833 37.34C30.1833 36.72 29.9767 36.1344 29.5633 35.5833C29.15 35.0322 28.6678 34.6877 28.1167 34.55V32.4833H37.4167L35.1433 34.55C35.0056 34.8255 34.9367 35.1011 34.9367 35.3766V37.4433C34.3855 37.5811 33.9378 37.9255 33.5933 38.4766C33.2489 39.0277 33.0767 39.6133 33.0767 40.2333C33.0767 40.8533 33.2489 41.4044 33.5933 41.8866C33.9378 42.3689 34.3855 42.6789 34.9367 42.8166V45.5033L33.2833 47.1566C33.1455 47.4322 33.0767 47.7077 33.0767 47.9833V53.9766C32.5256 54.1144 32.0433 54.4244 31.63 54.9066C31.2167 55.3889 31.01 56.0089 31.01 56.7666C31.01 57.5244 31.32 58.1789 31.94 58.73C32.56 59.2811 33.2489 59.5566 34.0067 59.5566C34.7644 59.5566 35.4189 59.2811 35.97 58.73C36.5211 58.1789 36.7967 57.5244 36.7967 56.7666C36.7967 56.0089 36.6244 55.3889 36.28 54.9066C35.9356 54.4244 35.4878 54.1144 34.9367 53.9766V48.3966L36.59 46.7433C36.8656 46.4677 36.9344 46.1922 36.7967 45.9166V42.8166C37.7611 42.5411 38.3811 41.99 38.6567 41.1633H43.6167C43.8922 41.1633 44.1678 41.0944 44.4433 40.9566L46.9233 38.27H51.6767C51.8144 38.8211 52.1244 39.2689 52.6067 39.6133C53.0889 39.9577 53.7089 40.13 54.4667 40.13C55.2244 40.13 55.8789 39.8544 56.43 39.3033C56.9811 38.7522 57.2567 38.1322 57.2567 37.4433C57.2567 36.7544 57.0844 36.1344 56.74 35.5833C56.3955 35.0322 55.9478 34.6877 55.3967 34.55V32.4833H57.2567C57.5322 32.4833 57.7733 32.38 57.98 32.1733C58.1867 31.9666 58.29 31.7255 58.29 31.45C58.29 26.2144 56.9811 21.3577 54.3633 16.88C51.7455 12.4022 48.1978 8.85441 43.72 6.23663C39.2422 3.61885 34.3856 2.30997 29.15 2.30997ZM6.00333 45.09C5.72777 45.09 5.48666 44.9866 5.27999 44.78C5.07333 44.5733 4.96999 44.3322 4.96999 44.0566C4.96999 43.7811 5.07333 43.54 5.27999 43.3333C5.48666 43.1266 5.69333 43.0233 5.89999 43.0233C6.10666 43.0233 6.31333 43.1266 6.51999 43.3333C6.72666 43.54 6.82999 43.7811 6.82999 44.0566C6.82999 44.3322 6.72666 44.5733 6.51999 44.78C6.31333 44.9866 6.14111 45.09 6.00333 45.09ZM15.51 39.0966C15.2344 39.0966 15.0278 39.0277 14.89 38.89C14.7522 38.7522 14.6833 38.5455 14.6833 38.27C14.6833 37.9944 14.7522 37.7533 14.89 37.5466C15.0278 37.34 15.2344 37.2366 15.51 37.2366C15.7856 37.2366 16.0267 37.34 16.2333 37.5466C16.44 37.7533 16.5433 37.9944 16.5433 38.27C16.5433 38.5455 16.44 38.7522 16.2333 38.89C16.0267 39.0277 15.7856 39.0966 15.51 39.0966ZM33.9033 57.6966C33.6278 57.6966 33.4211 57.5933 33.2833 57.3866C33.1455 57.18 33.0767 56.9389 33.0767 56.6633C33.0767 56.3877 33.1455 56.1466 33.2833 55.94C33.4211 55.7333 33.6278 55.63 33.9033 55.63C34.1789 55.63 34.42 55.7333 34.6267 55.94C34.8333 56.1466 34.9367 56.3877 34.9367 56.6633C34.9367 56.9389 34.8333 57.18 34.6267 57.3866C34.42 57.5933 34.1789 57.6966 33.9033 57.6966ZM52.71 17.81C51.1944 18.4989 49.5411 19.05 47.75 19.4633C46.9233 16.8455 45.8211 14.4344 44.4433 12.23C45.4078 11.9544 46.3722 11.6789 47.3367 11.4033C49.4033 13.3322 51.1944 15.4677 52.71 17.81ZM37.83 30.4166C37.83 28.0744 37.7611 25.6633 37.6233 23.1833C40.6544 22.9077 43.5478 22.4255 46.3033 21.7366C46.9922 24.63 47.4055 27.5233 47.5433 30.4166H37.83ZM33.6967 12.0233C32.0433 12.0233 30.5278 12.0233 29.15 12.0233C27.7722 12.0233 26.2567 12.0233 24.6033 12.0233C25.2922 9.5433 26.05 7.64886 26.8767 6.33997C27.7033 5.03108 28.4611 4.37663 29.15 4.37663C29.8389 4.37663 30.5967 5.03108 31.4233 6.33997C32.25 7.64886 33.0078 9.5433 33.6967 12.0233ZM32.87 4.78997C36.0389 5.75441 38.7944 7.82108 41.1367 10.99C39.4833 11.2655 37.6922 11.5411 35.7633 11.8166C34.9367 8.78552 33.9722 6.4433 32.87 4.78997ZM34.11 13.8833C34.6611 16.2255 35.0744 18.7744 35.35 21.53C33.2833 21.6677 31.2167 21.7366 29.15 21.7366C27.0833 21.7366 25.0167 21.6677 22.95 21.53C23.2255 18.7744 23.6389 16.2255 24.19 13.8833C25.8433 14.0211 27.4967 14.09 29.15 14.09C30.8033 14.09 32.4567 14.0211 34.11 13.8833ZM22.5367 11.8166C20.6078 11.5411 18.8167 11.2655 17.1633 10.99C19.5056 7.82108 22.2611 5.75441 25.43 4.78997C24.3278 6.4433 23.3633 8.78552 22.5367 11.8166ZM22.1233 13.6766C21.71 16.0189 21.2967 18.5677 20.8833 21.3233C17.99 21.0477 15.1655 20.5655 12.41 19.8766C13.2367 17.2589 14.4078 14.8477 15.9233 12.6433C17.8522 13.0566 19.9189 13.4011 22.1233 13.6766ZM20.6767 23.1833C20.5389 25.6633 20.47 28.0744 20.47 30.4166H10.7567C10.8944 27.5233 11.3078 24.63 11.9967 21.7366C14.7522 22.4255 17.6455 22.9077 20.6767 23.1833ZM22.7433 23.39C24.81 23.5277 26.9455 23.5966 29.15 23.5966C31.3544 23.5966 33.49 23.5277 35.5567 23.39C35.8322 25.7322 35.97 28.0744 35.97 30.4166H22.33C22.33 28.0744 22.4678 25.7322 22.7433 23.39ZM37.4167 21.3233C37.0033 18.5677 36.59 16.0189 36.1767 13.6766C38.3811 13.4011 40.4478 13.0566 42.3767 12.6433C43.8922 14.8477 45.0633 17.2589 45.89 19.8766C43.1344 20.5655 40.31 21.0477 37.4167 21.3233ZM45.6833 9.95663C44.9944 10.2322 44.1678 10.4389 43.2033 10.5766C42.1011 8.9233 40.7922 7.47663 39.2767 6.23663C41.6189 7.20108 43.7544 8.44108 45.6833 9.95663ZM15.0967 10.5766C14.1322 10.4389 13.3055 10.2322 12.6167 9.95663C14.5455 8.44108 16.6811 7.20108 19.0233 6.23663C17.5078 7.47663 16.1989 8.9233 15.0967 10.5766ZM10.9633 11.4033C11.9278 11.6789 12.8922 11.9544 13.8567 12.23C12.4789 14.4344 11.3767 16.8455 10.55 19.4633C8.75888 19.05 7.10555 18.4989 5.58999 17.81C7.10555 15.4677 8.89666 13.3322 10.9633 11.4033ZM4.76333 19.67C6.41666 20.2211 8.20777 20.7722 10.1367 21.3233C9.30999 24.2166 8.89666 27.2477 8.89666 30.4166H2.07666C2.21444 26.6966 3.10999 23.1144 4.76333 19.67ZM25.2233 58.5233C24.9478 58.5233 24.7411 58.4544 24.6033 58.3166C24.4655 58.1789 24.3967 57.9722 24.3967 57.6966C24.3967 57.4211 24.4655 57.18 24.6033 56.9733C24.7411 56.7666 24.9478 56.6633 25.2233 56.6633C25.4989 56.6633 25.74 56.7666 25.9467 56.9733C26.1533 57.18 26.2567 57.4211 26.2567 57.6966C26.2567 57.9722 26.1533 58.1789 25.9467 58.3166C25.74 58.4544 25.4989 58.5233 25.2233 58.5233ZM27.29 38.27C27.0144 38.27 26.7733 38.1666 26.5667 37.96C26.36 37.7533 26.2567 37.5122 26.2567 37.2366C26.2567 36.9611 26.36 36.72 26.5667 36.5133C26.7733 36.3066 27.0144 36.2033 27.29 36.2033C27.5655 36.2033 27.7722 36.3066 27.91 36.5133C28.0478 36.72 28.1167 36.9611 28.1167 37.2366C28.1167 37.5122 28.0478 37.7533 27.91 37.96C27.7722 38.1666 27.5655 38.27 27.29 38.27ZM26.2567 34.55C25.7055 34.6877 25.2578 35.0322 24.9133 35.5833C24.5689 36.1344 24.3967 36.72 24.3967 37.34C24.3967 37.96 24.5689 38.5111 24.9133 38.9933C25.2578 39.4755 25.7055 39.7855 26.2567 39.9233V44.6766L25.2233 45.5033L22.33 42.61V32.4833H26.2567V34.55ZM35.97 41.1633C35.6944 41.1633 35.4533 41.06 35.2467 40.8533C35.04 40.6466 34.9367 40.4055 34.9367 40.13C34.9367 39.8544 35.04 39.6477 35.2467 39.51C35.4533 39.3722 35.6944 39.2689 35.97 39.2C36.2455 39.1311 36.4867 39.2 36.6933 39.4066C36.9 39.6133 36.9689 39.8544 36.9 40.13C36.8311 40.4055 36.7278 40.6466 36.59 40.8533C36.4522 41.06 36.2455 41.1633 35.97 41.1633ZM54.3633 38.27C54.0878 38.27 53.8467 38.1666 53.64 37.96C53.4333 37.7533 53.33 37.5122 53.33 37.2366C53.33 36.9611 53.4333 36.72 53.64 36.5133C53.8467 36.3066 54.0878 36.2033 54.3633 36.2033C54.6389 36.2033 54.88 36.3066 55.0867 36.5133C55.2933 36.72 55.3967 36.9611 55.3967 37.2366C55.3967 37.5122 55.2933 37.7533 55.0867 37.96C54.88 38.1666 54.6389 38.27 54.3633 38.27ZM53.33 34.55C52.5033 34.8255 51.9522 35.3766 51.6767 36.2033H46.51C46.2344 36.2033 46.0278 36.3411 45.89 36.6166L43.2033 39.0966H38.6567C38.3811 38.27 37.83 37.7189 37.0033 37.4433V35.79L40.31 32.4833H53.33V34.55ZM49.4033 30.4166C49.4033 27.2477 48.99 24.2166 48.1633 21.3233C50.0922 20.91 51.8833 20.3589 53.5367 19.67C55.19 23.1144 56.0855 26.6966 56.2233 30.4166H49.4033Z" fill="white"/></svg>