<svg width="100%" height="100%" style="overflow:visible;" preserveAspectRatio="none" viewBox="0 0 197.5 68" fill="none" xmlns="http://www.w3.org/2000/svg"><g clip-path="url(#clip0_1_72)"><path d="M2.16334 31.6566C1.88779 31.3811 1.54334 31.3466 1.13001 31.5533C0.716676 31.76 0.51001 32.07 0.51001 32.4833V59.5566C0.51001 59.8322 0.613343 60.0733 0.82001 60.28C1.02668 60.4866 1.26779 60.59 1.54334 60.59H28.6167C29.03 60.59 29.34 60.3833 29.5467 59.97C29.7533 59.5566 29.7189 59.2122 29.4433 58.9366L2.16334 31.6566ZM2.57668 58.5233V34.7566L26.3433 58.5233H2.57668ZM7.33001 54.5966H15.1833C15.5967 54.7344 15.8722 54.5966 16.01 54.1833C16.1478 53.77 16.0789 53.3566 15.8033 52.9433L8.15668 45.2966C7.74334 45.0211 7.33001 44.9522 6.91668 45.09C6.50334 45.2277 6.29668 45.5033 6.29668 45.9166V53.77C6.43445 54.0455 6.57223 54.2522 6.71001 54.39C6.84779 54.5277 7.05445 54.5966 7.33001 54.5966ZM8.36334 48.3966L12.7033 52.7366H8.36334V48.3966ZM11.2567 6.23663H13.1167V8.09663H11.2567V6.23663ZM15.1833 6.23663H17.0433V8.09663H15.1833V6.23663ZM18.9033 6.23663H20.97V8.09663H18.9033V6.23663ZM20.5567 19.8766C20.1433 20.0144 19.9367 20.29 19.9367 20.7033V31.45C19.9367 31.8633 20.1433 32.1389 20.5567 32.2766L29.2367 36.2033C29.5122 36.3411 29.7878 36.3411 30.0633 36.2033L38.7433 32.2766C39.1567 32.1389 39.3633 31.8633 39.3633 31.45V20.7033C39.3633 20.29 39.1567 20.0144 38.7433 19.8766L30.0633 15.95C29.7878 15.95 29.5122 15.95 29.2367 15.95L20.5567 19.8766ZM28.6167 33.93L22.0033 30.83V22.3566L28.6167 25.25V33.93ZM37.5033 30.83L30.6833 33.93V25.25L37.5033 22.3566V30.83ZM29.65 18.0166L36.0567 20.7033L29.65 23.5966L23.2433 20.7033L29.65 18.0166ZM28.6167 39.0966H30.6833V44.0566H28.6167V39.0966ZM28.6167 9.12997H30.6833V14.09H28.6167V9.12997ZM12.7033 18.8433L13.53 16.9833L17.6633 19.05L16.8367 20.7033L12.7033 18.8433ZM41.6367 18.8433L45.77 16.9833L46.5967 18.8433L42.4633 20.7033L41.6367 18.8433ZM12.7033 34.3433L16.8367 32.4833L17.6633 34.3433L13.53 36.2033L12.7033 34.3433ZM57.7567 46.95H51.97V31.8633L57.55 26.0766C58.3767 25.3877 58.79 24.5266 58.79 23.4933C58.79 22.46 58.4111 21.5989 57.6533 20.91C56.8956 20.2211 56 19.8766 54.9667 19.8766C53.9333 19.8766 53.0722 20.2211 52.3833 20.91L51.97 21.3233V13.0566C51.97 12.7811 51.8322 12.5744 51.5567 12.4366L42.05 2.7233C41.7745 2.44775 41.4989 2.30997 41.2233 2.30997H11.2567C10.1545 2.30997 9.22445 2.68885 8.46668 3.44663C7.7089 4.20441 7.33001 5.13441 7.33001 6.23663V34.3433H9.39668V6.23663C9.39668 5.68552 9.5689 5.23774 9.91334 4.8933C10.2578 4.54885 10.7056 4.37663 11.2567 4.37663H40.3967V10.1633C40.3967 11.2655 40.7756 12.1955 41.5333 12.9533C42.2911 13.7111 43.1522 14.09 44.1167 14.09H49.9033V23.39L34.8167 38.4766C34.6789 38.6144 34.61 38.8211 34.61 39.0966L33.5767 43.85C33.4389 44.1255 33.5078 44.4011 33.7833 44.6766C34.0589 44.9522 34.3345 45.09 34.61 45.09L39.57 44.0566C39.7078 44.0566 39.8456 43.9877 39.9833 43.85L49.9033 33.7233V46.95H30.6833C30.4078 46.95 30.1667 47.0533 29.96 47.26C29.7533 47.4666 29.65 47.7077 29.65 47.9833V50.8766H24.8967V52.7366H29.65V55.63C29.65 55.9055 29.7533 56.1466 29.96 56.3533C30.1667 56.56 30.4078 56.6633 30.6833 56.6633H57.7567C58.0322 56.6633 58.2733 56.56 58.48 56.3533C58.6867 56.1466 58.79 55.9055 58.79 55.63V47.9833C58.79 47.7077 58.6867 47.4666 58.48 47.26C58.2733 47.0533 58.0322 46.95 57.7567 46.95ZM42.2567 10.1633V5.61663L48.6633 12.0233H44.1167C43.5656 12.0233 43.1178 11.8511 42.7733 11.5066C42.4289 11.1622 42.2567 10.7144 42.2567 10.1633ZM36.8833 39.0966L51.97 24.01L54.45 26.6966L39.3633 41.7833L36.8833 39.0966ZM55.07 21.7366C55.7589 21.7366 56.2756 22.1155 56.62 22.8733C56.9645 23.6311 56.8611 24.2855 56.31 24.8366L55.8967 25.25L53.21 22.77L53.83 22.3566C54.1056 21.9433 54.5189 21.7366 55.07 21.7366ZM36.0567 41.1633L37.2967 42.4033L35.6433 42.8166L36.0567 41.1633ZM56.7233 54.5966H31.51V48.81H33.5767V50.8766H35.4367V48.81H37.5033V50.8766H39.3633V48.81H41.2233V50.8766H43.29V48.81H45.15V50.8766H47.01V48.81H49.0767V50.8766H50.9367V48.81H53.0033V50.8766H54.8633V48.81H56.7233V54.5966Z" fill="white"/></g><defs><clipPath id="clip0_1_72"><rect width="62.02" height="62" fill="white" transform="matrix(1 0 0 -1 0.5 62.45)"/></clipPath></defs></svg>