<svg width="100%" height="100%" style="overflow:visible;" preserveAspectRatio="none" viewBox="0 0 197.5 68" fill="none" xmlns="http://www.w3.org/2000/svg"><path d="M55.19 47.9833H32.87C32.7322 47.57 32.5256 47.1566 32.25 46.7433L26.8767 40.5433C26.6011 40.2677 26.3256 40.13 26.05 40.13H15.51V39.0966C15.51 38.9588 15.4067 38.7866 15.2 38.58C14.9933 38.3733 14.7522 38.27 14.4767 38.27H0.836676C0.561121 38.27 0.354454 38.3733 0.216676 38.58C0.0788986 38.7866 0.0100098 38.9588 0.0100098 39.0966V60.59C0.0100098 60.8655 0.0788986 61.0722 0.216676 61.21C0.354454 61.3477 0.561121 61.4166 0.836676 61.4166H8.69001C8.96556 61.4166 9.20668 61.3477 9.41334 61.21C9.62001 61.0722 9.72334 60.8655 9.72334 60.59V59.5566H14.4767C14.7522 59.5566 14.9933 59.4533 15.2 59.2466C15.4067 59.04 15.51 58.7988 15.51 58.5233V57.6966H21.9167L27.4967 61.4166C27.6345 61.4166 27.8411 61.4166 28.1167 61.4166L59.3233 54.5966C59.7367 54.5966 59.9433 54.3211 59.9433 53.77V52.7366C59.9433 51.3588 59.4956 50.2222 58.6 49.3266C57.7045 48.4311 56.5678 47.9833 55.19 47.9833ZM7.65668 59.5566H1.87001V40.13H7.65668V59.5566ZM13.4433 57.6966H9.72334V40.13H13.4433V57.6966ZM58.0833 52.9433L28.3233 59.5566L22.7433 55.8366C22.6056 55.6988 22.4678 55.63 22.33 55.63H15.51V42.1966H25.6367L30.8033 47.9833C30.9411 48.1211 31.01 48.3277 31.01 48.6033V49.8433C31.01 50.1188 30.9067 50.36 30.7 50.5666C30.4933 50.7733 30.2522 50.8766 29.9767 50.8766H28.9433C28.6678 50.8766 28.3922 50.7388 28.1167 50.4633L23.9833 46.33L22.5367 47.57L26.8767 51.91C27.4278 52.4611 28.1167 52.7366 28.9433 52.7366H29.9767C30.8033 52.7366 31.4922 52.4611 32.0433 51.91C32.5945 51.3588 32.87 50.67 32.87 49.8433H55.19C56.0167 49.8433 56.7056 50.1188 57.2567 50.67C57.8078 51.2211 58.0833 51.91 58.0833 52.7366V52.9433ZM59.1167 30.4166H57.05V9.12996C57.05 8.3033 56.7745 7.6144 56.2233 7.06329C55.6722 6.51218 54.9833 6.23663 54.1567 6.23663H47.3367L44.65 3.54996C44.3745 3.27441 44.0989 3.13663 43.8233 3.13663C43.5478 3.13663 43.3411 3.27441 43.2033 3.54996L42.17 4.37663C41.6189 4.10107 41.1367 3.89441 40.7233 3.75663V2.30996C40.7233 2.0344 40.62 1.82774 40.4133 1.68996C40.2067 1.55218 39.9656 1.4833 39.69 1.4833H35.7633C35.4878 1.4833 35.2467 1.55218 35.04 1.68996C34.8333 1.82774 34.73 2.0344 34.73 2.30996V3.75663C34.3167 3.89441 33.8345 4.10107 33.2833 4.37663L32.25 3.54996C32.1122 3.27441 31.9056 3.13663 31.63 3.13663C31.3545 3.13663 31.0789 3.27441 30.8033 3.54996L28.1167 6.23663H21.2967C20.47 6.23663 19.7811 6.51218 19.23 7.06329C18.6789 7.6144 18.4033 8.3033 18.4033 9.12996V14.9166H0.836676C0.561121 14.9166 0.354454 15.02 0.216676 15.2266C0.0788986 15.4333 0.0100098 15.6744 0.0100098 15.95V27.5233C0.0100098 27.7988 0.0788986 28.04 0.216676 28.2466C0.354454 28.4533 0.561121 28.5566 0.836676 28.5566H18.4033V30.4166H16.3367C16.0611 30.4166 15.8545 30.52 15.7167 30.7266C15.5789 30.9333 15.51 31.1744 15.51 31.45V35.3766C15.51 36.2033 15.7856 36.8922 16.3367 37.4433C16.8878 37.9944 17.5767 38.27 18.4033 38.27H57.05C57.8767 38.27 58.5656 37.9944 59.1167 37.4433C59.6678 36.8922 59.9433 36.2033 59.9433 35.3766V31.45C59.9433 31.1744 59.8745 30.9333 59.7367 30.7266C59.5989 30.52 59.3922 30.4166 59.1167 30.4166ZM55.19 9.12996V30.4166H53.33V11.1966C53.33 10.9211 53.2267 10.68 53.02 10.4733C52.8133 10.2666 52.5722 10.1633 52.2967 10.1633H46.9233C46.7856 9.61218 46.5789 9.06107 46.3033 8.50996L46.7167 8.09663H54.1567C54.4322 8.09663 54.6733 8.19996 54.88 8.40663C55.0867 8.61329 55.19 8.8544 55.19 9.12996ZM25.2233 27.5233V15.95C25.2233 15.6744 25.12 15.4333 24.9133 15.2266C24.7067 15.02 24.4656 14.9166 24.19 14.9166V12.0233H26.05V14.9166C26.05 15.1922 26.1533 15.4333 26.36 15.64C26.5667 15.8466 26.8078 15.95 27.0833 15.95H28.53C28.6678 16.5011 28.8745 17.0522 29.15 17.6033L28.1167 18.43C27.9789 18.7055 27.91 18.9811 27.91 19.2566C27.91 19.5322 27.9789 19.7388 28.1167 19.8766L30.8033 22.5633C31.0789 22.8388 31.3545 22.9766 31.63 22.9766C31.9056 22.9766 32.1122 22.8388 32.25 22.5633L33.2833 21.53C33.8345 21.8055 34.3167 22.0811 34.73 22.3566V23.5966C34.73 23.8722 34.8333 24.1133 35.04 24.32C35.2467 24.5266 35.4878 24.63 35.7633 24.63H39.69C39.9656 24.63 40.2067 24.5266 40.4133 24.32C40.62 24.1133 40.7233 23.8722 40.7233 23.5966V22.3566C41.1367 22.0811 41.6189 21.8055 42.17 21.53L43.2033 22.5633C43.3411 22.8388 43.5478 22.9766 43.8233 22.9766C44.0989 22.9766 44.3745 22.8388 44.65 22.5633L47.3367 19.8766C47.4745 19.7388 47.5433 19.5322 47.5433 19.2566C47.5433 18.9811 47.4745 18.7055 47.3367 18.43L46.3033 17.6033C46.5789 17.0522 46.7856 16.5011 46.9233 15.95H48.37C48.6456 15.95 48.8867 15.8466 49.0933 15.64C49.3 15.4333 49.4033 15.1922 49.4033 14.9166V12.0233H51.2633V30.4166H24.19V28.5566C24.4656 28.5566 24.7067 28.4533 24.9133 28.2466C25.12 28.04 25.2233 27.7988 25.2233 27.5233ZM30.1833 11.4033C30.3211 10.4389 30.6656 9.61218 31.2167 8.92329C31.4922 8.50996 31.4233 8.09663 31.01 7.68329L30.1833 6.85663L31.63 5.40996L32.4567 6.44329C32.7322 6.71885 33.1456 6.71885 33.6967 6.44329C34.3856 6.02996 35.1433 5.68552 35.97 5.40996C36.5211 5.40996 36.7967 5.1344 36.7967 4.58329V3.34329H38.6567V4.58329C38.6567 5.1344 38.9322 5.40996 39.4833 5.40996C40.31 5.68552 41.0678 6.02996 41.7567 6.44329C42.3078 6.71885 42.7211 6.71885 42.9967 6.44329L43.8233 5.40996L45.27 6.85663L44.4433 7.68329C44.03 8.09663 43.9611 8.50996 44.2367 8.92329C44.7878 9.61218 45.1322 10.4389 45.27 11.4033C45.4078 11.8166 45.7522 12.0233 46.3033 12.0233H47.3367V14.09H46.3033C45.7522 14.09 45.4078 14.2966 45.27 14.71C45.1322 15.5366 44.7878 16.3633 44.2367 17.19C43.9611 17.6033 44.03 18.0166 44.4433 18.43L45.27 19.2566L43.8233 20.4966L42.9967 19.67C42.7211 19.3944 42.3078 19.3944 41.7567 19.67C41.0678 20.0833 40.31 20.3588 39.4833 20.4966C38.9322 20.6344 38.6567 20.9788 38.6567 21.53V22.77H36.7967V21.53C36.7967 20.9788 36.5211 20.6344 35.97 20.4966C35.1433 20.3588 34.3856 20.0833 33.6967 19.67C33.1456 19.3944 32.7322 19.3944 32.4567 19.67L31.63 20.4966L30.1833 19.2566L31.01 18.43C31.4233 18.0166 31.4922 17.6033 31.2167 17.19C30.6656 16.3633 30.3211 15.5366 30.1833 14.71C30.0456 14.2966 29.7011 14.09 29.15 14.09H28.1167V12.0233H29.15C29.7011 12.0233 30.0456 11.8166 30.1833 11.4033ZM20.2633 9.12996C20.2633 8.8544 20.3667 8.61329 20.5733 8.40663C20.78 8.19996 21.0211 8.09663 21.2967 8.09663H28.7367L29.15 8.50996C28.8745 9.06107 28.6678 9.61218 28.53 10.1633H23.1567C22.8811 10.1633 22.6745 10.2666 22.5367 10.4733C22.3989 10.68 22.2611 10.9211 22.1233 11.1966V14.9166H20.2633V9.12996ZM1.87001 16.9833H23.1567V26.6966H1.87001V16.9833ZM20.2633 28.5566H22.33V30.4166H20.2633V28.5566ZM58.0833 35.3766C58.0833 35.6522 57.98 35.8588 57.7733 35.9966C57.5667 36.1344 57.3256 36.2033 57.05 36.2033H18.4033C18.1278 36.2033 17.8867 36.1344 17.68 35.9966C17.4733 35.8588 17.37 35.6522 17.37 35.3766V32.4833H58.0833V35.3766ZM37.83 18.8433C39.3456 18.8433 40.6889 18.2922 41.86 17.19C43.0311 16.0877 43.6167 14.71 43.6167 13.0566C43.6167 11.4033 43.0311 10.0255 41.86 8.92329C40.6889 7.82107 39.3111 7.26996 37.7267 7.26996C36.1422 7.26996 34.7645 7.82107 33.5933 8.92329C32.4222 10.0255 31.8367 11.4033 31.8367 13.0566C31.8367 14.71 32.4222 16.0877 33.5933 17.19C34.7645 18.2922 36.1078 18.8433 37.6233 18.8433H37.83ZM37.83 9.12996C38.7945 9.12996 39.6556 9.50885 40.4133 10.2666C41.1711 11.0244 41.55 11.9544 41.55 13.0566C41.55 14.1588 41.1711 15.0888 40.4133 15.8466C39.6556 16.6044 38.76 16.9833 37.7267 16.9833C36.6933 16.9833 35.7978 16.6044 35.04 15.8466C34.2822 15.0888 33.9033 14.1588 33.9033 13.0566C33.9033 11.9544 34.2822 11.0244 35.04 10.2666C35.7978 9.50885 36.7278 9.12996 37.83 9.12996ZM7.03668 18.2233L4.14334 21.1166C3.86779 21.2544 3.73001 21.4611 3.73001 21.7366C3.73001 22.0122 3.86779 22.2188 4.14334 22.3566L7.03668 25.4566L8.48334 24.01L6.21001 21.7366L8.48334 19.4633L7.03668 18.2233ZM17.99 18.2233L16.75 19.4633L18.8167 21.7366L16.75 24.01L17.99 25.4566L20.8833 22.3566C21.1589 22.2188 21.2967 22.0122 21.2967 21.7366C21.2967 21.4611 21.1589 21.2544 20.8833 21.1166L17.99 18.2233ZM9.72334 25.25L13.65 17.3966L15.3033 18.2233L11.3767 26.0766L9.72334 25.25Z" fill="white"/></svg>