<svg width="100%" height="100%" style="overflow:visible;" preserveAspectRatio="none" viewBox="0 0 62.02 82" fill="none" xmlns="http://www.w3.org/2000/svg"><g clip-path="url(#clip0_1_217)"><path d="M62.975 26.52H60.7017L57.395 28.1733C56.9817 28.0355 56.5684 27.8978 56.155 27.76L52.0217 26.7266V26.3133C52.9861 25.6244 53.7095 24.7633 54.1917 23.73C54.6739 22.6966 54.915 21.6289 54.915 20.5266V18.6666C54.915 16.7378 54.2606 15.0844 52.9517 13.7066C51.6428 12.3289 50.0239 11.5711 48.095 11.4333H47.6817L48.715 8.95332L43.3417 3.57998L40.2417 5.64665C39.1395 4.95776 37.8995 4.47554 36.5217 4.19998L35.695 0.47998H28.255L27.4284 4.19998C26.0506 4.47554 24.8106 4.95776 23.7084 5.64665L20.6084 3.57998L15.235 8.95332L16.2684 11.4333C14.2017 11.4333 12.4795 12.1222 11.1017 13.5C9.72393 14.8778 9.03504 16.5311 9.03504 18.46V20.5266C9.03504 21.6289 9.27615 22.6966 9.75837 23.73C10.2406 24.7633 10.9639 25.6244 11.9284 26.3133V26.7266L9.2417 27.3466L4.2817 24.4533H0.975037V45.12L10.895 48.4266H12.755L12.9617 47.6L16.0617 49.46C16.0617 50.2866 16.3373 50.9755 16.8884 51.5266C17.4395 52.0778 18.1284 52.4222 18.955 52.56C18.955 53.2489 19.265 53.9033 19.885 54.5233C20.505 55.1433 21.2284 55.4533 22.055 55.4533C22.055 56.28 22.3306 56.9689 22.8817 57.52C23.4328 58.0711 24.1217 58.4155 24.9484 58.5533C24.9484 59.38 25.2584 60.0689 25.8784 60.62C26.4984 61.1711 27.1873 61.4466 27.945 61.4466C28.7028 61.4466 29.3573 61.3089 29.9084 61.0333L30.735 61.6533C31.2861 62.2044 31.975 62.48 32.8017 62.48H33.0084C33.835 62.48 34.5239 62.17 35.075 61.55C35.6261 60.93 35.9017 60.2066 35.9017 59.38C36.7284 59.38 37.4517 59.1044 38.0717 58.5533C38.6917 58.0022 39.0017 57.3133 39.0017 56.4866C39.8284 56.4866 40.5173 56.1766 41.0684 55.5566C41.6195 54.9366 41.895 54.2133 41.895 53.3866C42.7217 53.3866 43.445 53.1111 44.065 52.56C44.685 52.0089 44.995 51.32 44.995 50.4933V50.08L62.975 41.1933V26.52ZM53.055 18.6666V20.5266C53.055 21.3533 52.8139 22.1455 52.3317 22.9033C51.8495 23.6611 51.2639 24.3155 50.575 24.8666L49.955 25.0733V28.1733L54.915 29.4133L43.9617 35.2V32.5133C43.9617 31.2733 43.4795 30.1711 42.515 29.2066L46.0284 28.1733V25.0733L45.4084 24.8666C44.7195 24.3155 44.1339 23.6611 43.6517 22.9033C43.1695 22.1455 42.9284 21.3533 42.9284 20.5266V18.46C42.9284 17.0822 43.445 15.9111 44.4784 14.9466C45.5117 13.9822 46.7173 13.5 48.095 13.5C49.4728 13.5 50.6439 14.0166 51.6084 15.05C52.5728 16.0833 53.055 17.2889 53.055 18.6666ZM33.4217 34.58L28.875 33.1333C26.8084 32.4444 24.6728 32.3066 22.4684 32.72L22.055 32.9266V32.5133C22.055 31.8244 22.2617 31.2389 22.675 30.7566C23.0884 30.2744 23.6395 29.8955 24.3284 29.62L29.9084 28.1733V25.0733L29.495 24.8666C28.6684 24.3155 28.0484 23.6611 27.635 22.9033C27.2217 22.1455 27.015 21.3533 27.015 20.5266V18.46C27.015 17.0822 27.5317 15.9111 28.565 14.9466C29.5984 13.9822 30.7695 13.5 32.0784 13.5C33.3873 13.5 34.5239 14.0166 35.4884 15.05C36.4528 16.0833 36.935 17.2889 36.935 18.6666V20.5266C36.935 21.3533 36.7284 22.1455 36.315 22.9033C35.9017 23.6611 35.2817 24.3155 34.455 24.8666L34.0417 25.0733V28.1733L39.6217 29.62C40.3106 29.8955 40.8617 30.2744 41.275 30.7566C41.6884 31.2389 41.895 31.8244 41.895 32.5133V36.44H41.6884H41.0684L34.8684 34.7866C34.455 34.6489 33.9728 34.58 33.4217 34.58ZM22.2617 15.36C23.2261 13.5689 24.5695 12.1566 26.2917 11.1233C28.0139 10.09 29.9084 9.57331 31.975 9.57331C34.0417 9.57331 35.9361 10.09 37.6584 11.1233C39.3806 12.1566 40.7239 13.5689 41.6884 15.36C41.275 16.3244 41.0684 17.3578 41.0684 18.46V20.5266C41.0684 21.6289 41.3095 22.6966 41.7917 23.73C42.2739 24.7633 42.9973 25.6244 43.9617 26.3133V26.7266L40.035 27.76L35.9017 26.7266V26.3133C36.8661 25.6244 37.6239 24.7633 38.175 23.73C38.7261 22.6966 39.0017 21.6289 39.0017 20.5266V18.6666C39.0017 16.7378 38.3473 15.0844 37.0384 13.7066C35.7295 12.3289 34.1106 11.6055 32.1817 11.5366C30.2528 11.4678 28.565 12.1222 27.1184 13.5C25.6717 14.8778 24.9484 16.5311 24.9484 18.46V20.5266C24.9484 21.6289 25.2239 22.6966 25.775 23.73C26.3261 24.7633 27.0839 25.6244 28.0484 26.3133V26.7266L23.915 27.76L19.9884 26.7266V26.3133C20.9528 25.6244 21.6761 24.7633 22.1584 23.73C22.6406 22.6966 22.8817 21.6289 22.8817 20.5266V18.6666C22.8817 17.5644 22.675 16.4622 22.2617 15.36ZM17.5084 9.36665L20.815 6.26665L23.7084 8.12665L24.1217 7.71331C25.4995 6.88665 26.9461 6.26665 28.4617 5.85331H29.0817L29.7017 2.54665H34.2484L34.8684 5.85331H35.4884C37.0039 6.26665 38.4506 6.88665 39.8284 7.71331L40.2417 8.12665L43.135 6.26665L46.4417 9.36665L45.2017 12.0533C44.375 12.3289 43.6861 12.8111 43.135 13.5H42.9284C41.8261 11.7089 40.2761 10.2622 38.2784 9.15998C36.2806 8.05776 34.1795 7.50665 31.975 7.50665C29.7706 7.50665 27.6695 8.05776 25.6717 9.15998C23.6739 10.2622 22.1239 11.7778 21.0217 13.7066C20.3328 13.0178 19.575 12.4666 18.7484 12.0533L17.5084 9.36665ZM13.995 28.1733V25.0733L13.375 24.8666C12.6861 24.3155 12.1006 23.6611 11.6184 22.9033C11.1361 22.1455 10.895 21.3533 10.895 20.5266V18.46C10.895 17.0822 11.4117 15.9111 12.445 14.9466C13.4784 13.9822 14.6839 13.5 16.0617 13.5C17.4395 13.5 18.6106 14.0166 19.575 15.05C20.5395 16.0833 21.0217 17.2889 21.0217 18.6666V20.5266C21.0217 21.3533 20.7806 22.1455 20.2984 22.9033C19.8161 23.6611 19.2306 24.3155 18.5417 24.8666L17.9217 25.0733V28.1733L21.435 29.2066C20.4706 30.1711 19.9884 31.2733 19.9884 32.5133V33.34L16.8884 33.96V33.7533V31.8933L11.7217 28.7933L13.995 28.1733ZM3.0417 26.52H3.6617L10.895 30.6533L7.17504 45.12L3.0417 43.6733V26.52ZM11.1017 46.5666L9.2417 45.74L12.755 31.6866L15.0284 33.1333V33.34L11.3084 46.5666H11.1017ZM17.9217 49.46C17.9217 49.0466 18.0595 48.7711 18.335 48.6333L19.9884 46.7733C20.2639 46.6355 20.5395 46.5666 20.815 46.5666C21.0906 46.5666 21.3661 46.67 21.6417 46.8766C21.9173 47.0833 22.055 47.3244 22.055 47.6C22.055 47.8755 21.9173 48.1511 21.6417 48.4266L19.9884 50.08C19.7128 50.3555 19.4028 50.4933 19.0584 50.4933C18.7139 50.4933 18.4384 50.39 18.2317 50.1833C18.025 49.9766 17.9217 49.7355 17.9217 49.46ZM21.0217 52.3533C21.0217 52.0778 21.0906 51.8022 21.2284 51.5266L23.0884 49.8733C23.2261 49.5978 23.4673 49.46 23.8117 49.46C24.1561 49.46 24.4317 49.5633 24.6384 49.77C24.845 49.9766 24.9484 50.2522 24.9484 50.5966C24.9484 50.9411 24.8795 51.1822 24.7417 51.32L22.8817 53.18C22.6061 53.3178 22.3306 53.3866 22.055 53.3866C21.7795 53.3866 21.5384 53.2833 21.3317 53.0766C21.125 52.87 21.0217 52.6289 21.0217 52.3533ZM23.915 55.4533C23.915 55.04 24.0528 54.7644 24.3284 54.6266L25.9817 52.7666C26.2573 52.6289 26.5328 52.56 26.8084 52.56C27.0839 52.56 27.3595 52.6633 27.635 52.87C27.9106 53.0766 28.0484 53.3178 28.0484 53.5933C28.0484 53.8689 27.9106 54.1444 27.635 54.42L25.9817 56.0733C25.7061 56.3489 25.3961 56.4866 25.0517 56.4866C24.7073 56.4866 24.4317 56.3833 24.225 56.1766C24.0184 55.97 23.915 55.7289 23.915 55.4533ZM28.0484 59.38C27.7728 59.38 27.5317 59.2766 27.325 59.07C27.1184 58.8633 27.015 58.6222 27.015 58.3466C27.015 58.0711 27.0839 57.7955 27.2217 57.52L29.0817 55.8666C29.2195 55.5911 29.4606 55.4533 29.805 55.4533C30.1495 55.4533 30.425 55.5566 30.6317 55.7633C30.8384 55.97 30.9417 56.2455 30.9417 56.59C30.9417 56.9344 30.8728 57.1755 30.735 57.3133L28.875 59.1733C28.5995 59.3111 28.3239 59.38 28.0484 59.38ZM33.0084 60.4133H32.8017C32.5261 60.4133 32.2506 60.3444 31.975 60.2066L31.355 59.5866L31.975 58.76C32.2506 58.4844 32.4573 58.2089 32.595 57.9333L33.6284 58.5533C33.9039 58.8289 34.0417 59.1044 34.0417 59.38C34.0417 59.6555 33.9384 59.8966 33.7317 60.1033C33.525 60.31 33.2839 60.4133 33.0084 60.4133ZM41.895 51.5266H41.6884C41.4128 51.5266 41.2061 51.4578 41.0684 51.32L35.695 46.7733L34.2484 48.22L39.6217 52.56C39.8973 52.8355 40.035 53.1111 40.035 53.3866C40.035 53.6622 39.9317 53.9033 39.725 54.11C39.5184 54.3166 39.2773 54.42 39.0017 54.42H38.795C38.5195 54.42 38.2439 54.3511 37.9684 54.2133L32.595 49.6666L31.355 51.32L36.5217 55.66C36.7973 55.7978 36.935 56.0389 36.935 56.3833C36.935 56.7278 36.8317 57.0033 36.625 57.21C36.4184 57.4166 36.1428 57.52 35.7984 57.52C35.4539 57.52 35.1439 57.3822 34.8684 57.1066L32.595 55.2466C32.0439 54.1444 31.1484 53.5933 29.9084 53.5933C29.9084 52.7666 29.6328 52.0433 29.0817 51.4233C28.5306 50.8033 27.8417 50.4933 27.015 50.4933C27.015 49.6666 26.705 48.9778 26.085 48.4266C25.465 47.8755 24.7417 47.5311 23.915 47.3933C23.915 46.5666 23.605 45.8778 22.985 45.3266C22.365 44.7755 21.6417 44.5 20.815 44.5C19.9884 44.5 19.2995 44.7755 18.7484 45.3266L16.6817 47.3933L13.5817 45.74L16.2684 36.2333L22.8817 34.7866C24.8106 34.3733 26.6017 34.4422 28.255 34.9933L29.9084 35.4066L24.7417 37.8866C24.1906 38.1622 23.7428 38.5755 23.3984 39.1266C23.0539 39.6778 22.8817 40.2978 22.8817 40.9866V41.1933C22.8817 42.02 23.2261 42.7778 23.915 43.4666C24.6039 44.1555 25.4306 44.5 26.395 44.5C26.9461 44.5 27.4973 44.3622 28.0484 44.0866L31.7684 41.8133C32.1817 41.5378 32.595 41.4344 33.0084 41.5033C33.4217 41.5722 33.835 41.7444 34.2484 42.02L42.7217 49.6666C42.8595 49.8044 42.9284 50.0455 42.9284 50.39C42.9284 50.7344 42.825 51.01 42.6184 51.2166C42.4117 51.4233 42.1706 51.5266 41.895 51.5266ZM60.9084 39.9533L44.1684 48.22L35.4884 40.5733C34.7995 39.8844 34.0073 39.54 33.1117 39.54C32.2161 39.54 31.4239 39.6778 30.735 39.9533L27.015 42.2266C26.7395 42.3644 26.4639 42.4333 26.1884 42.4333C25.9128 42.4333 25.6373 42.2955 25.3617 42.02C25.0861 41.7444 24.9484 41.4689 24.9484 41.1933V40.9866C24.9484 40.4355 25.2239 40.0222 25.775 39.7466L31.355 36.8533C32.3195 36.44 33.3528 36.3711 34.455 36.6466L40.655 38.5066H42.3084L60.9084 28.5866V39.9533Z" fill="#E9A233"/></g><defs><clipPath id="clip0_1_217"><rect width="62.02" height="62" fill="white" transform="matrix(1 0 0 -1 0.965027 62.48)"/></clipPath></defs></svg>