<svg width="100%" height="100%" style="overflow:visible;" preserveAspectRatio="none" viewBox="0 0 62.02 82" fill="none" xmlns="http://www.w3.org/2000/svg"><g clip-path="url(#clip0_1_231)"><path d="M50.555 2.33987H4.05499C3.22832 2.33987 2.50499 2.64988 1.88499 3.26987C1.26499 3.88987 0.954987 4.54432 0.954987 5.23321V22.7999C0.954987 23.6265 1.26499 24.3154 1.88499 24.8665C2.50499 25.4177 3.22832 25.6932 4.05499 25.6932H23.895C23.7572 28.0354 23.275 30.171 22.4483 32.0999C21.4839 34.3043 20.175 35.4065 18.5217 35.4065H17.2817C17.1439 34.8554 16.8339 34.3732 16.3517 33.9599C15.8694 33.5465 15.2839 33.3399 14.595 33.3399H7.77499C6.94832 33.3399 6.25943 33.6499 5.70832 34.2699C5.15721 34.8899 4.88165 35.5443 4.88165 36.2332V54.6265C4.88165 55.4532 5.15721 56.1765 5.70832 56.7965C6.25943 57.4165 6.94832 57.7265 7.77499 57.7265H14.595C15.5594 57.7265 16.3861 57.2443 17.075 56.2799C17.7639 56.1421 18.4872 56.2454 19.245 56.5899C20.0028 56.9343 20.6572 57.451 21.2083 58.1399C22.5861 59.7932 24.3772 60.6199 26.5817 60.6199H36.5017C38.155 60.4821 39.395 59.7932 40.2217 58.5532C41.0483 57.3132 41.1172 56.0732 40.4283 54.8332C41.5305 54.2821 42.2539 53.3177 42.5983 51.9399C42.9428 50.5621 42.7705 49.391 42.0817 48.4265C43.0461 47.5999 43.6661 46.5665 43.9417 45.3265C44.2172 44.0865 44.0105 42.9154 43.3217 41.8132C44.0105 40.9865 44.3894 40.091 44.4583 39.1265C44.5272 38.1621 44.2517 37.301 43.6317 36.5432C43.0117 35.7854 42.1505 35.4065 41.0483 35.4065H31.1283C32.0928 32.2377 32.2994 28.9999 31.7483 25.6932H34.435C34.9861 25.6932 35.3305 25.8999 35.4683 26.3132L36.5017 30.0332C36.6394 30.7221 37.0872 31.1699 37.845 31.3765C38.6028 31.5832 39.2572 31.3421 39.8083 30.6532L43.735 26.1065C44.0105 25.831 44.2861 25.6932 44.5617 25.6932H50.555C51.2439 25.6932 51.8983 25.4177 52.5183 24.8665C53.1383 24.3154 53.4483 23.6265 53.4483 22.7999V5.23321C53.4483 4.54432 53.1383 3.88987 52.5183 3.26987C51.8983 2.64988 51.175 2.33987 50.3483 2.33987H50.555ZM15.6283 54.6265C15.6283 54.9021 15.525 55.1432 15.3183 55.3499C15.1117 55.5565 14.8705 55.6599 14.595 55.6599H7.77499C7.49943 55.6599 7.29276 55.5565 7.15499 55.3499C7.01721 55.1432 6.94832 54.9021 6.94832 54.6265V36.2332C6.94832 35.9577 7.01721 35.751 7.15499 35.6132C7.29276 35.4754 7.49943 35.4065 7.77499 35.4065H14.595C14.8705 35.4065 15.1117 35.4754 15.3183 35.6132C15.525 35.751 15.6283 35.9577 15.6283 36.2332V54.6265ZM41.0483 37.2665C42.0128 37.2665 42.495 37.7143 42.495 38.6099C42.495 39.5054 42.0817 40.2288 41.255 40.7799C40.9794 41.0554 40.8417 41.3654 40.8417 41.7099C40.8417 42.0543 41.0483 42.3643 41.4617 42.6399C41.875 42.9154 42.1161 43.3977 42.185 44.0865C42.2539 44.7754 42.1161 45.3954 41.7717 45.9465C41.4272 46.4977 40.9794 46.8077 40.4283 46.8765C39.8772 46.9454 39.5328 47.1865 39.395 47.5999C39.2572 48.0132 39.395 48.4265 39.8083 48.8399C40.2217 49.2532 40.5317 49.8043 40.7383 50.4932C40.945 51.1821 40.8761 51.8021 40.5317 52.3532C40.1872 52.9043 39.6017 53.1799 38.775 53.1799C38.2239 53.1799 37.8794 53.421 37.7417 53.9032C37.6039 54.3854 37.7417 54.7643 38.155 55.0399C38.9817 55.7288 39.1539 56.4521 38.6717 57.2099C38.1894 57.9677 37.4661 58.4154 36.5017 58.5532H26.5817C24.9283 58.5532 23.6194 58.0021 22.655 56.8999C21.8283 55.9354 21.0361 55.281 20.2783 54.9365C19.5205 54.5921 18.5905 54.4199 17.4883 54.4199V37.2665C20.795 37.5421 23.0683 36.0954 24.3083 32.9265C25.135 31.1354 25.6861 28.311 25.9617 24.4532C25.9617 23.7643 26.2717 23.2821 26.8917 23.0065C27.5117 22.731 28.1317 22.6965 28.7517 22.9032C29.3717 23.1099 29.6817 23.5577 29.6817 24.2465C30.095 26.0377 30.2672 27.8977 30.1983 29.8265C30.1294 31.7554 29.8194 33.4088 29.2683 34.7865C29.1305 35.3377 29.2339 35.8888 29.5783 36.4399C29.9228 36.991 30.4394 37.2665 31.1283 37.2665H41.0483ZM51.3817 22.7999C51.3817 23.0754 51.2783 23.2821 51.0717 23.4199C50.865 23.5577 50.6239 23.6954 50.3483 23.8332H44.5617C43.735 23.6954 42.9772 23.971 42.2883 24.6599L38.3617 29.4132L37.3283 25.8999C37.0528 25.211 36.6739 24.6943 36.1917 24.3499C35.7094 24.0054 35.1239 23.8332 34.435 23.8332H31.335C31.0594 22.5932 30.3705 21.7665 29.2683 21.3532C28.1661 20.9399 27.0639 20.9399 25.9617 21.3532C24.8594 21.7665 24.1705 22.5932 23.895 23.8332H4.05499C3.77943 23.6954 3.53832 23.5577 3.33165 23.4199C3.12499 23.2821 3.02165 23.0754 3.02165 22.7999V5.23321C3.02165 4.95765 3.12499 4.75098 3.33165 4.61321C3.53832 4.47543 3.77943 4.40654 4.05499 4.40654H50.555C50.6928 4.40654 50.865 4.47543 51.0717 4.61321C51.2783 4.75098 51.3817 4.95765 51.3817 5.23321V22.7999ZM13.7683 46.9799H9.01499C8.73943 46.9799 8.49832 46.8765 8.29165 46.6699C8.08499 46.4632 7.98165 46.2221 7.98165 45.9465C7.98165 45.671 8.08499 45.4643 8.29165 45.3265C8.49832 45.1888 8.73943 45.1199 9.01499 45.1199H13.7683C14.0439 45.1199 14.285 45.1888 14.4917 45.3265C14.6983 45.4643 14.8017 45.671 14.8017 45.9465C14.8017 46.2221 14.6983 46.4632 14.4917 46.6699C14.285 46.8765 14.0439 46.9799 13.7683 46.9799ZM13.7683 51.7332H9.01499C8.73943 51.7332 8.49832 51.6643 8.29165 51.5265C8.08499 51.3888 7.98165 51.1821 7.98165 50.9065C7.98165 50.631 8.08499 50.3899 8.29165 50.1832C8.49832 49.9765 8.73943 49.8732 9.01499 49.8732H13.7683C14.0439 49.8732 14.285 49.9765 14.4917 50.1832C14.6983 50.3899 14.8017 50.631 14.8017 50.9065C14.8017 51.1821 14.6983 51.3888 14.4917 51.5265C14.285 51.6643 14.0439 51.7332 13.7683 51.7332ZM13.7683 41.1932H9.01499C8.73943 41.1932 8.49832 41.0899 8.29165 40.8832C8.08499 40.6765 7.98165 40.4354 7.98165 40.1599C7.98165 39.8843 8.08499 39.6777 8.29165 39.5399C8.49832 39.4021 8.73943 39.2643 9.01499 39.1265H13.7683C14.0439 39.1265 14.285 39.2299 14.4917 39.4365C14.6983 39.6432 14.8017 39.8843 14.8017 40.1599C14.8017 40.4354 14.6983 40.6765 14.4917 40.8832C14.285 41.0899 14.0439 41.1932 13.7683 41.1932ZM17.9017 11.2265H13.7683L12.5283 7.29987C12.3905 6.88654 12.115 6.67987 11.7017 6.67987C11.2883 6.67987 11.0128 6.88654 10.875 7.29987L9.63499 11.2265H5.50165C5.08832 11.2265 4.81276 11.4332 4.67499 11.8465C4.53721 12.2599 4.67499 12.6043 5.08832 12.8799L8.18832 15.1532L6.94832 19.0799C6.81054 19.4932 6.94832 19.8377 7.36165 20.1132C7.77499 20.3888 8.11943 20.3888 8.39499 20.1132L11.7017 17.6332L15.0083 20.1132C15.2839 20.3888 15.6283 20.3888 16.0417 20.1132C16.455 19.8377 16.5928 19.4932 16.455 19.0799L15.215 15.1532L18.315 12.8799C18.7283 12.6043 18.8661 12.2599 18.7283 11.8465C18.5905 11.4332 18.315 11.2265 17.9017 11.2265ZM13.1483 15.1532L13.5617 16.8065L12.3217 15.7732C11.9083 15.4977 11.495 15.4977 11.0817 15.7732L9.84165 16.8065L10.255 15.1532C10.3928 14.7399 10.255 14.3954 9.84165 14.1199L8.60165 13.0865H10.255C10.6683 13.0865 10.9439 12.8799 11.0817 12.4665L11.7017 10.8132L12.3217 12.4665C12.4594 12.8799 12.735 13.0865 13.1483 13.0865H14.8017L13.5617 14.1199C13.1483 14.3954 13.0105 14.7399 13.1483 15.1532ZM33.4017 11.2265H29.2683L28.0283 7.29987C27.8905 6.88654 27.615 6.67987 27.2017 6.67987C26.7883 6.67987 26.5128 6.88654 26.375 7.29987L25.135 11.2265H21.0017C20.5883 11.2265 20.3128 11.4332 20.175 11.8465C20.0372 12.2599 20.175 12.6043 20.5883 12.8799L23.6883 15.1532L22.4483 19.0799C22.3105 19.4932 22.4483 19.8377 22.8617 20.1132C23.275 20.3888 23.6194 20.3888 23.895 20.1132L27.2017 17.6332L30.5083 20.1132C30.7839 20.3888 31.1283 20.3888 31.5417 20.1132C31.955 19.8377 32.0928 19.4932 31.955 19.0799L30.715 15.1532L33.815 12.8799C34.2283 12.6043 34.3661 12.2599 34.2283 11.8465C34.0905 11.4332 33.815 11.2265 33.4017 11.2265ZM28.6483 15.1532L29.0617 16.8065L27.8217 15.7732C27.4083 15.4977 26.995 15.4977 26.5817 15.7732L25.3417 16.8065L25.755 15.1532C25.8928 14.7399 25.755 14.3954 25.3417 14.1199L24.1017 13.0865H25.755C26.1683 13.0865 26.4439 12.8799 26.5817 12.4665L27.2017 10.8132L27.8217 12.4665C27.9594 12.8799 28.235 13.0865 28.6483 13.0865H30.3017L29.0617 14.1199C28.6483 14.3954 28.5105 14.7399 28.6483 15.1532ZM48.9017 11.2265H44.7683L43.5283 7.29987C43.3905 6.88654 43.115 6.67987 42.7017 6.67987C42.2883 6.67987 42.0128 6.88654 41.875 7.29987L40.635 11.2265H36.5017C36.0883 11.2265 35.8128 11.4332 35.675 11.8465C35.5372 12.2599 35.675 12.6043 36.0883 12.8799L39.1883 15.1532L37.9483 19.0799C37.8105 19.4932 37.9483 19.8377 38.3617 20.1132C38.775 20.3888 39.1194 20.3888 39.395 20.1132L42.7017 17.6332L46.0083 20.1132C46.2839 20.3888 46.6283 20.3888 47.0417 20.1132C47.455 19.8377 47.5928 19.4932 47.455 19.0799L46.215 15.1532L49.315 12.8799C49.7283 12.6043 49.8661 12.2599 49.7283 11.8465C49.5905 11.4332 49.315 11.2265 48.9017 11.2265ZM44.1483 15.1532L44.5617 16.8065L43.3217 15.7732C42.9083 15.4977 42.495 15.4977 42.0817 15.7732L40.8417 16.8065L41.255 15.1532C41.3928 14.7399 41.255 14.3954 40.8417 14.1199L39.6017 13.0865H41.255C41.6683 13.0865 41.9439 12.8799 42.0817 12.4665L42.7017 10.8132L43.3217 12.4665C43.4594 12.8799 43.735 13.0865 44.1483 13.0865H45.8017L44.5617 14.1199C44.1483 14.3954 44.0105 14.7399 44.1483 15.1532Z" fill="#E9A233"/></g><defs><clipPath id="clip0_1_231"><rect width="62.02" height="62" fill="white" transform="matrix(1 0 0 -1 0.944992 62.48)"/></clipPath></defs></svg>