<svg width="100%" height="100%" style="overflow:visible;" preserveAspectRatio="none" viewBox="0 0 75 80" fill="none" xmlns="http://www.w3.org/2000/svg"><g clip-path="url(#clip0_1_127)"><path d="M39.9 47.6799C39.74 47.7599 39.62 47.7999 39.54 47.7999L38.34 48.0399C38.34 49.1599 38.54 50.2199 38.94 51.2199C39.34 52.2199 39.94 53.1199 40.74 53.9199C40.9 54.1599 41.12 54.2799 41.4 54.2799C41.68 54.2799 41.9 54.1599 42.06 53.9199L46.62 49.4799C47.42 48.5999 47.88 47.5599 48 46.3599C48.12 45.1599 47.82 44.0799 47.1 43.1199C45.26 44.7199 43.22 46.0799 40.98 47.1999L39.9 47.6799ZM26.58 34.8399C26.58 34.7599 26.62 34.6799 26.7 34.5999L26.82 34.2399C28.1 31.7599 29.66 29.4799 31.5 27.3999H31.38C30.42 26.6799 29.32 26.3599 28.08 26.4399C26.84 26.5199 25.78 26.9999 24.9 27.8799L20.46 32.3199C20.3 32.5599 20.22 32.7999 20.22 33.0399C20.22 33.2799 20.3 33.4799 20.46 33.6399C21.26 34.4399 22.18 35.0599 23.22 35.4999C24.26 35.9399 25.3 36.1199 26.34 36.0399L26.58 34.8399ZM39.66 45.5199L40.02 45.2799C43.22 43.6799 46.02 41.5399 48.42 38.8599C50.82 36.1799 52.66 33.1599 53.94 29.7999L45.06 21.0399C41.62 22.1599 38.5 23.9199 35.7 26.3199C32.9 28.7199 30.66 31.5599 28.98 34.8399L39.66 45.5199ZM38.7 29.6799C39.66 28.7999 40.76 28.3599 42 28.3599C43.24 28.3599 44.3 28.7999 45.18 29.6799C46.06 30.5599 46.5 31.6399 46.5 32.9199C46.5 34.1999 46.06 35.2799 45.18 36.1599C44.3 37.0399 43.24 37.4799 42 37.4799C40.76 37.4799 39.68 37.0399 38.76 36.1599C37.84 35.2799 37.38 34.1999 37.38 32.9199C37.38 31.6399 37.82 30.5599 38.7 29.6799ZM47.46 20.3199L54.54 27.5199C54.94 25.7599 55.26 23.5599 55.5 20.9199C55.5 20.5199 55.38 20.1999 55.14 19.9599C54.9 19.7199 54.62 19.5999 54.3 19.5999C51.5 19.7599 49.22 19.9999 47.46 20.3199ZM37.26 45.9999L28.38 37.2399L27.9 40.4799C27.82 40.7999 27.9 41.1199 28.14 41.4399L33.06 46.2399C33.3 46.4799 33.58 46.5999 33.9 46.5999L37.26 45.9999ZM40.26 31.1199C39.78 31.5999 39.54 32.1799 39.54 32.8599C39.54 33.5399 39.78 34.1199 40.26 34.5999C40.74 35.0799 41.32 35.3199 42 35.3199C42.68 35.3199 43.26 35.0799 43.74 34.5999C44.22 34.1199 44.46 33.5399 44.46 32.8599C44.46 32.1799 44.22 31.5999 43.74 31.1199C43.26 30.6399 42.68 30.3999 42 30.3999C41.32 30.3999 40.74 30.6399 40.26 31.1199ZM27.78 46.9599C27.62 46.7999 27.38 46.7199 27.06 46.7199C26.74 46.7199 26.5 46.7999 26.34 46.9599L22.86 50.4399C22.7 50.6799 22.62 50.9399 22.62 51.2199C22.62 51.4999 22.72 51.7399 22.92 51.9399C23.12 52.1399 23.36 52.2399 23.64 52.2399C23.92 52.2399 24.18 52.1199 24.42 51.8799L27.78 48.5199C28.02 48.2799 28.14 48.0199 28.14 47.7399C28.14 47.4599 28.02 47.1999 27.78 46.9599ZM24.78 43.9599C24.54 43.7199 24.28 43.5999 24 43.5999C23.72 43.5999 23.46 43.7199 23.22 43.9599L19.86 47.3199C19.62 47.5599 19.5 47.8199 19.5 48.0999C19.5 48.3799 19.6 48.6199 19.8 48.8199C20 49.0199 20.24 49.1199 20.52 49.1199C20.8 49.1199 21.06 49.0399 21.3 48.8799L24.78 45.3999C24.94 45.2399 25.02 44.9999 25.02 44.6799C25.02 44.3599 24.94 44.1199 24.78 43.9599ZM29.34 50.0799L25.98 53.5599C25.74 53.7199 25.62 53.9399 25.62 54.2199C25.62 54.4999 25.72 54.7599 25.92 54.9999C26.12 55.2399 26.38 55.3599 26.7 55.3599C27.02 55.3599 27.26 55.2399 27.42 54.9999L30.9 51.5199C31.06 51.3599 31.14 51.1199 31.14 50.7999C31.14 50.4799 31.04 50.2199 30.84 50.0199C30.64 49.8199 30.4 49.7199 30.12 49.7199C29.84 49.7199 29.58 49.8399 29.34 50.0799Z" fill="white"/></g><defs><clipPath id="clip0_1_127"><rect width="36" height="36" fill="white" transform="matrix(1 0 0 -1 19.5 55.48)"/></clipPath></defs></svg>