<svg width="100%" height="100%" style="overflow:visible;" preserveAspectRatio="none" viewBox="0 0 75 80" fill="none" xmlns="http://www.w3.org/2000/svg"><g clip-path="url(#clip0_1_297)"><path d="M14.295 59.9253C14.0817 59.9253 13.895 59.8453 13.735 59.6853C13.575 59.5253 13.495 59.3386 13.495 59.1253V58.3253C13.495 56.2986 14.215 54.5386 15.655 53.0453C17.095 51.552 18.8817 50.8053 21.015 50.8053C22.0817 50.8053 23.095 51.0186 24.055 51.4453C24.2684 50.272 24.855 49.2586 25.815 48.4053C26.775 47.552 27.895 47.1253 29.175 47.1253C29.3884 47.1253 29.575 47.2053 29.735 47.3653C29.895 47.5253 29.975 47.712 29.975 47.9253C29.975 48.1386 29.895 48.2986 29.735 48.4053C29.575 48.512 29.3884 48.5653 29.175 48.5653C28.1084 48.5653 27.2284 48.9386 26.535 49.6853C25.8417 50.432 25.495 51.3386 25.495 52.4053V52.7253C25.495 53.0453 25.3617 53.2853 25.095 53.4453C24.8284 53.6053 24.5884 53.5786 24.375 53.3653C23.3084 52.7253 22.1884 52.4053 21.015 52.4053C19.3084 52.4053 17.8684 52.992 16.695 54.1653C15.5217 55.3386 14.935 56.7253 14.935 58.3253V58.9653C15.0417 59.1786 15.015 59.3653 14.855 59.5253C14.695 59.6853 14.5084 59.8186 14.295 59.9253ZM54.615 59.9253C54.615 59.9253 54.5617 59.8986 54.455 59.8453C54.3484 59.792 54.215 59.6853 54.055 59.5253C53.895 59.3653 53.8684 59.1786 53.975 58.9653V58.3253C53.975 56.9386 53.4684 55.712 52.455 54.6453C51.4417 53.5786 50.1884 53.0453 48.695 53.0453C47.8417 53.0453 46.9884 53.312 46.135 53.8453C45.9217 53.952 45.735 53.9786 45.575 53.9253C45.415 53.872 45.2817 53.792 45.175 53.6853C44.535 52.832 43.735 52.4053 42.775 52.4053C42.5617 52.4053 42.375 52.3253 42.215 52.1653C42.055 52.0053 41.975 51.8186 41.975 51.6053C41.975 50.752 41.735 49.952 41.255 49.2053C40.775 48.4586 40.1617 47.9253 39.415 47.6053C39.2017 47.4986 39.0684 47.3386 39.015 47.1253C38.9617 46.912 38.9617 46.7253 39.015 46.5653C39.0684 46.4053 39.2017 46.272 39.415 46.1653C39.6284 46.0586 39.8417 46.0586 40.055 46.1653C41.015 46.592 41.7884 47.232 42.375 48.0853C42.9617 48.9386 43.3084 49.8986 43.415 50.9653C44.375 51.072 45.2284 51.4986 45.975 52.2453C46.8284 51.8186 47.735 51.6053 48.695 51.6053C50.615 51.6053 52.215 52.272 53.495 53.6053C54.775 54.9386 55.415 56.512 55.415 58.3253V59.2853C55.415 59.392 55.335 59.5253 55.175 59.6853C55.015 59.8453 54.8284 59.9253 54.615 59.9253ZM36.695 49.3653C36.4817 49.3653 36.295 49.2853 36.135 49.1253C35.975 48.9653 35.895 48.7786 35.895 48.5653V44.0853C35.895 43.872 35.975 43.712 36.135 43.6053C36.295 43.4986 36.4817 43.4186 36.695 43.3653C36.9084 43.312 37.095 43.3653 37.255 43.5253C37.415 43.6853 37.495 43.872 37.495 44.0853V48.5653C37.495 48.7786 37.415 48.9653 37.255 49.1253C37.095 49.2853 36.9084 49.3653 36.695 49.3653ZM32.215 53.8453C32.0017 53.8453 31.815 53.7653 31.655 53.6053C31.495 53.4453 31.415 53.2586 31.415 53.0453V44.0853C31.415 43.872 31.495 43.712 31.655 43.6053C31.815 43.4986 32.0017 43.4186 32.215 43.3653C32.4284 43.312 32.615 43.3653 32.775 43.5253C32.935 43.6853 33.015 43.872 33.015 44.0853V53.0453C33.015 53.2586 32.935 53.4453 32.775 53.6053C32.615 53.7653 32.4284 53.8453 32.215 53.8453ZM41.975 59.9253C41.7617 59.9253 41.575 59.8453 41.415 59.6853C41.255 59.5253 41.175 59.3386 41.175 59.1253C41.175 58.0586 40.8017 57.152 40.055 56.4053C39.3084 55.6586 38.455 55.2853 37.495 55.2853C36.7484 55.2853 36.055 55.4986 35.415 55.9253C34.775 56.352 34.3484 56.8853 34.135 57.5253C33.9217 57.7386 33.7084 57.872 33.495 57.9253C33.2817 57.9786 33.0684 57.8986 32.855 57.6853C32.215 57.152 31.5217 56.8853 30.775 56.8853C30.0284 56.8853 29.3884 57.0986 28.855 57.5253C28.3217 57.952 27.9484 58.5386 27.735 59.2853C27.735 59.4986 27.655 59.6586 27.495 59.7653C27.335 59.872 27.1484 59.8986 26.935 59.8453C26.7217 59.792 26.5617 59.6853 26.455 59.5253C26.3484 59.3653 26.295 59.1786 26.295 58.9653C26.5084 57.8986 27.0417 57.0186 27.895 56.3253C28.7484 55.632 29.655 55.2853 30.615 55.2853C31.575 55.2853 32.4284 55.552 33.175 56.0853C33.7084 55.4453 34.3484 54.912 35.095 54.4853C35.8417 54.0586 36.6417 53.8453 37.495 53.8453C38.8817 53.8453 40.1084 54.352 41.175 55.3653C42.2417 56.3786 42.775 57.632 42.775 59.1253C42.775 59.3386 42.695 59.5253 42.535 59.6853C42.375 59.8453 42.1884 59.9253 41.975 59.9253ZM35.895 51.6053C35.895 51.8186 35.975 52.0053 36.135 52.1653C36.295 52.3253 36.4817 52.4053 36.695 52.4053C36.9084 52.4053 37.095 52.3253 37.255 52.1653C37.415 52.0053 37.495 51.8186 37.495 51.6053C37.495 51.392 37.415 51.2053 37.255 51.0453C37.095 50.8853 36.9084 50.8053 36.695 50.8053C36.4817 50.8053 36.295 50.8853 36.135 51.0453C35.975 51.2053 35.895 51.392 35.895 51.6053ZM30.775 36.5653L29.975 33.8453V39.9253L26.935 41.3653V36.8853C26.935 35.392 27.4684 34.1653 28.535 33.2053L29.495 32.0853L29.175 30.3253L27.415 32.0853C26.135 33.3653 25.495 34.9653 25.495 36.8853V42.6453C25.495 42.8586 25.575 43.0186 25.735 43.1253C25.895 43.232 26.0284 43.2853 26.135 43.2853H26.615L31.095 41.0453C31.2017 40.9386 31.3084 40.7786 31.415 40.5653L30.775 40.4053V36.5653ZM41.495 32.0853L39.735 30.3253L39.415 32.0853L40.375 33.2053C41.4417 34.1653 41.975 35.392 41.975 36.8853V41.3653L38.935 39.9253V33.8453L38.135 36.5653V40.4053L37.495 40.5653C37.6017 40.7786 37.7084 40.9386 37.815 41.0453L42.295 43.2853L42.775 43.4453C42.8817 43.3386 43.015 43.232 43.175 43.1253C43.335 43.0186 43.415 42.8586 43.415 42.6453V36.8853C43.415 34.9653 42.775 33.3653 41.495 32.0853ZM34.455 41.8453C33.495 41.8453 32.535 41.7386 31.575 41.5253C31.0417 41.312 30.6417 41.152 30.375 41.0453C30.1084 40.9386 29.975 40.7253 29.975 40.4053V36.7253L29.015 33.5253C28.1617 30.2186 28.1617 26.912 29.015 23.6053C29.8684 20.2986 31.5217 17.472 33.975 15.1253C34.0817 14.912 34.2417 14.8053 34.455 14.8053C34.6684 14.8053 34.8284 14.912 34.935 15.1253C37.3884 17.472 39.0417 20.2986 39.895 23.6053C40.7484 26.912 40.7484 30.2186 39.895 33.5253L38.935 36.7253V40.4053C38.935 40.7253 38.8017 40.9386 38.535 41.0453C38.2684 41.152 37.8684 41.312 37.335 41.5253C36.375 41.7386 35.415 41.8453 34.455 41.8453ZM31.415 39.9253C32.375 40.2453 33.3884 40.4053 34.455 40.4053C35.5217 40.4053 36.535 40.2453 37.495 39.9253V36.4053L38.455 33.2053C39.2017 30.2186 39.2284 27.2853 38.535 24.4053C37.8417 21.5253 36.4817 18.9653 34.455 16.7253C32.4284 18.9653 31.0684 21.5253 30.375 24.4053C29.6817 27.2853 29.7084 30.2186 30.455 33.2053L31.415 36.5653V39.9253ZM33.015 29.0453C33.015 29.2586 33.0684 29.4453 33.175 29.6053C33.2817 29.7653 33.4417 29.8453 33.655 29.8453C33.8684 29.8453 34.055 29.7653 34.215 29.6053C34.375 29.4453 34.455 29.2586 34.455 29.0453C34.455 28.832 34.375 28.672 34.215 28.5653C34.055 28.4586 33.8684 28.4053 33.655 28.4053C33.4417 28.4053 33.2817 28.4586 33.175 28.5653C33.0684 28.672 33.015 28.832 33.015 29.0453ZM33.015 26.1653C33.015 26.3786 33.0684 26.5386 33.175 26.6453C33.2817 26.752 33.4417 26.8053 33.655 26.8053C33.8684 26.8053 34.055 26.752 34.215 26.6453C34.375 26.5386 34.455 26.3786 34.455 26.1653C34.455 25.952 34.375 25.7653 34.215 25.6053C34.055 25.4453 33.8684 25.3653 33.655 25.3653C33.4417 25.3653 33.2817 25.4453 33.175 25.6053C33.0684 25.7653 33.015 25.952 33.015 26.1653ZM34.455 37.3653C34.135 37.3653 33.8684 37.3653 33.655 37.3653C33.4417 37.3653 33.255 37.2853 33.095 37.1253C32.935 36.9653 32.8817 36.7786 32.935 36.5653C32.9884 36.352 33.095 36.1653 33.255 36.0053C33.415 35.8453 33.6017 35.7653 33.815 35.7653L34.455 35.9253C35.8417 35.9253 36.9617 35.6586 37.815 35.1253C38.0284 35.1253 38.2417 35.152 38.455 35.2053C38.6684 35.2586 38.8017 35.3653 38.855 35.5253C38.9084 35.6853 38.9084 35.872 38.855 36.0853C38.8017 36.2986 38.7217 36.4586 38.615 36.5653C37.4417 37.0986 36.055 37.3653 34.455 37.3653ZM47.255 47.9253C47.0417 47.9253 46.855 47.8453 46.695 47.6853C46.535 47.5253 46.455 47.3386 46.455 47.1253V38.1653C46.455 37.952 46.535 37.7653 46.695 37.6053C46.855 37.4453 47.0417 37.3653 47.255 37.3653C47.4684 37.3653 47.6284 37.4453 47.735 37.6053C47.8417 37.7653 47.895 37.952 47.895 38.1653V47.1253C47.895 47.3386 47.8417 47.5253 47.735 47.6853C47.6284 47.8453 47.4684 47.9253 47.255 47.9253ZM50.135 41.8453C49.9217 41.8453 49.7617 41.7653 49.655 41.6053C49.5484 41.4453 49.495 41.2586 49.495 41.0453V30.6453C49.495 30.432 49.5484 30.2453 49.655 30.0853C49.7617 29.9253 49.9217 29.8453 50.135 29.8453C50.3484 29.8453 50.535 29.9253 50.695 30.0853C50.855 30.2453 50.935 30.432 50.935 30.6453V41.0453C50.935 41.2586 50.855 41.4453 50.695 41.6053C50.535 41.7653 50.3484 41.8453 50.135 41.8453ZM21.655 47.9253C21.4417 47.9253 21.2817 47.8453 21.175 47.6853C21.0684 47.5253 21.015 47.3386 21.015 47.1253V38.1653C21.015 37.952 21.0684 37.7653 21.175 37.6053C21.2817 37.4453 21.4417 37.3653 21.655 37.3653C21.8684 37.3653 22.055 37.4453 22.215 37.6053C22.375 37.7653 22.455 37.952 22.455 38.1653V47.1253C22.455 47.3386 22.375 47.5253 22.215 47.6853C22.055 47.8453 21.8684 47.9253 21.655 47.9253ZM18.775 40.4053C18.5617 40.4053 18.375 40.3253 18.215 40.1653C18.055 40.0053 17.975 39.8186 17.975 39.6053V30.6453C17.975 30.432 18.055 30.2453 18.215 30.0853C18.375 29.9253 18.5617 29.8453 18.775 29.8453C18.9884 29.8453 19.1484 29.9253 19.255 30.0853C19.3617 30.2453 19.415 30.432 19.415 30.6453V39.6053C19.415 39.8186 19.3617 40.0053 19.255 40.1653C19.1484 40.3253 18.9884 40.4053 18.775 40.4053ZM17.975 42.6453C17.975 42.8586 18.055 43.0453 18.215 43.2053C18.375 43.3653 18.5617 43.4186 18.775 43.3653C18.9884 43.312 19.1484 43.232 19.255 43.1253C19.3617 43.0186 19.415 42.8586 19.415 42.6453C19.415 42.432 19.3617 42.2453 19.255 42.0853C19.1484 41.9253 18.9884 41.8453 18.775 41.8453C18.5617 41.8453 18.375 41.9253 18.215 42.0853C18.055 42.2453 17.975 42.432 17.975 42.6453Z" fill="white"/></g><defs><clipPath id="clip0_1_297"><rect width="48.02" height="48" fill="white" transform="matrix(1 0 0 -1 13.485 61.3652)"/></clipPath></defs></svg>