<svg width="100%" height="100%" style="overflow:visible;" preserveAspectRatio="none" viewBox="0 0 197.5 68" fill="none" xmlns="http://www.w3.org/2000/svg"><g clip-path="url(#clip0_1_100)"><path d="M60.4433 32.4833C60.4433 29.1766 59.4444 26.3177 57.4467 23.9066C55.4489 21.4955 52.9344 19.9455 49.9033 19.2566V6.23663C49.9033 4.85885 49.4211 3.72218 48.4567 2.82663C47.4922 1.93107 46.3211 1.4833 44.9433 1.4833H19.73C18.49 1.4833 17.3878 1.93107 16.4233 2.82663C15.4589 3.72218 14.9767 4.85885 14.9767 6.23663V16.9833H9.39667L8.77667 19.2566L6.71 18.0166L1.54334 23.1833L2.78334 25.25L0.510002 25.87V33.1033L2.78334 33.7233L1.54334 35.79L6.71 40.9566L8.77667 39.7166L9.39667 42.1966H14.9767V56.6633C14.9767 58.0411 15.4589 59.1777 16.4233 60.0733C17.3878 60.9688 18.49 61.4166 19.73 61.4166H44.9433C46.3211 61.4166 47.4922 60.9688 48.4567 60.0733C49.4211 59.1777 49.9033 58.0411 49.9033 56.6633V45.71C52.9344 45.0211 55.4489 43.4366 57.4467 40.9566C59.4444 38.4766 60.4433 35.6522 60.4433 32.4833ZM58.5833 32.4833C58.5833 34.2744 58.17 35.9966 57.3433 37.65C57.0678 36.9611 56.62 36.3411 56 35.79C55.38 35.2388 54.6567 34.8255 53.83 34.55L49.9033 33.5166V33.31C51.1433 32.3455 51.7633 31.1055 51.7633 29.59V27.5233C51.7633 26.1455 51.2467 24.9744 50.2133 24.01C49.18 23.0455 48.0089 22.6322 46.7 22.77C45.3911 22.9077 44.2889 23.4588 43.3933 24.4233C42.4978 25.3877 42.05 26.49 42.05 27.73V29.59C42.05 31.1055 42.7389 32.3455 44.1167 33.31V33.5166L39.9833 34.55C39.1567 34.8255 38.4678 35.2388 37.9167 35.79C37.3656 36.3411 36.9522 36.9611 36.6767 37.65C35.7122 35.9966 35.23 34.2744 35.23 32.4833C35.23 29.1766 36.3667 26.3866 38.64 24.1133C40.9133 21.84 43.6689 20.7033 46.9067 20.7033C50.1444 20.7033 52.9 21.84 55.1733 24.1133C57.4467 26.3866 58.5833 29.1766 58.5833 32.4833ZM44.1167 19.2566C43.4278 19.3944 42.7389 19.5322 42.05 19.67V16.9833H22.83V30.4166H33.5767C33.4389 31.1055 33.37 31.7944 33.37 32.4833C33.37 35.6522 34.3689 38.4766 36.3667 40.9566C38.3644 43.4366 40.9478 45.0211 44.1167 45.71V47.9833H20.7633V14.9166H44.1167V19.2566ZM33.99 28.5566H24.69V18.8433H40.19V20.7033C38.6744 21.53 37.3656 22.6322 36.2633 24.01C35.1611 25.3877 34.4033 26.9033 33.99 28.5566ZM19.73 3.34329H44.9433C45.77 3.34329 46.4589 3.61885 47.01 4.16996C47.5611 4.72107 47.8367 5.40996 47.8367 6.23663V9.12996H16.8367V6.23663C16.8367 5.40996 17.1467 4.72107 17.7667 4.16996C18.3867 3.61885 19.0411 3.34329 19.73 3.34329ZM14.9767 33.93C14.2878 34.2055 13.6678 34.3433 13.1167 34.3433C11.7389 34.3433 10.5678 33.8611 9.60334 32.8966C8.63889 31.9322 8.15667 30.7955 8.15667 29.4866C8.15667 28.1777 8.63889 27.0411 9.60334 26.0766C10.5678 25.1122 11.7389 24.63 13.1167 24.63C13.6678 24.63 14.2878 24.7677 14.9767 25.0433V33.93ZM10.8433 40.13L10.43 38.27L10.2233 37.8566L9.19 37.2366L7.12334 38.4766L4.02334 35.5833L5.26334 33.5166L4.85 32.2766L2.37 31.6566V27.3166L4.85 26.6966L5.26334 25.6633L4.02334 23.5966L7.12334 20.4966L9.19 21.7366L10.2233 21.3233L10.8433 18.8433H14.9767V22.9766C14.2878 22.8388 13.6678 22.77 13.1167 22.77C11.1878 22.77 9.56889 23.4244 8.26 24.7333C6.95111 26.0422 6.29667 27.6266 6.29667 29.4866C6.29667 31.3466 6.95111 32.9311 8.26 34.24C9.56889 35.5488 11.1878 36.2033 13.1167 36.2033C13.6678 36.2033 14.2878 36.1344 14.9767 35.9966V40.13H10.8433ZM44.9433 59.5566H19.73C19.0411 59.5566 18.3867 59.2811 17.7667 58.73C17.1467 58.1788 16.8367 57.49 16.8367 56.6633V53.77H47.8367V56.6633C47.8367 57.49 47.5611 58.1788 47.01 58.73C46.4589 59.2811 45.77 59.5566 44.9433 59.5566ZM47.8367 51.7033H16.8367V11.1966H47.8367V18.8433H45.9767V13.0566H18.9033V49.8433H45.9767V45.9166H47.8367V51.7033ZM47.01 44.0566C45.2189 44.0566 43.5656 43.7122 42.05 43.0233C40.5344 42.3344 39.2256 41.37 38.1233 40.13V39.3033C38.1233 38.6144 38.33 38.0288 38.7433 37.5466C39.1567 37.0644 39.7078 36.6855 40.3967 36.41L45.9767 35.17V32.2766L45.5633 32.07C44.5989 31.5188 44.1167 30.6922 44.1167 29.59V27.73C44.1167 26.9033 44.3578 26.2144 44.84 25.6633C45.3222 25.1122 45.9767 24.8022 46.8033 24.7333C47.63 24.6644 48.3533 24.9055 48.9733 25.4566C49.5933 26.0077 49.9033 26.6966 49.9033 27.5233V29.59C49.9033 30.6922 49.4211 31.5188 48.4567 32.07L47.8367 32.2766V35.17L53.4167 36.41C54.1056 36.6855 54.6567 37.0644 55.07 37.5466C55.4833 38.0288 55.69 38.6144 55.69 39.3033V40.13C54.5878 41.37 53.2789 42.3344 51.7633 43.0233C50.2478 43.7122 48.6633 44.0566 47.01 44.0566ZM36.2633 5.20329H38.33V7.26996H36.2633V5.20329ZM26.55 5.20329H34.4033V7.26996H26.55V5.20329ZM28.6167 55.63H36.2633V57.6966H28.6167V55.63ZM42.05 55.63H44.1167V57.6966H42.05V55.63ZM20.7633 55.63H22.83V57.6966H20.7633V55.63ZM22.83 32.4833H31.51V34.3433H22.83V32.4833ZM22.83 36.2033H31.51V38.27H22.83V36.2033ZM22.83 40.13H31.51V42.1966H22.83V40.13ZM22.83 44.0566H31.51V45.9166H22.83V44.0566ZM54.6567 18.8433C55.4833 18.8433 56.1722 18.5677 56.7233 18.0166C57.2744 17.4655 57.55 16.8111 57.55 16.0533C57.55 15.2955 57.3778 14.6755 57.0333 14.1933C56.6889 13.7111 56.2411 13.4011 55.69 13.2633V5.20329H53.83V13.2633C53.1411 13.4011 52.6244 13.7111 52.28 14.1933C51.9356 14.6755 51.7633 15.2955 51.7633 16.0533C51.7633 16.8111 52.0389 17.4655 52.59 18.0166C53.1411 18.5677 53.83 18.8433 54.6567 18.8433ZM54.6567 14.9166C54.9322 14.9166 55.1733 15.02 55.38 15.2266C55.5867 15.4333 55.69 15.6744 55.69 15.95C55.69 16.2255 55.5867 16.4666 55.38 16.6733C55.1733 16.88 54.9322 16.9833 54.6567 16.9833C54.3811 16.9833 54.14 16.88 53.9333 16.6733C53.7267 16.4666 53.6578 16.2255 53.7267 15.95C53.7956 15.6744 53.8989 15.4333 54.0367 15.2266C54.1744 15.02 54.3811 14.9166 54.6567 14.9166ZM53.83 1.4833H55.69V3.34329H53.83V1.4833ZM10.2233 44.0566C9.39667 44.0566 8.67334 44.3322 8.05334 44.8833C7.43334 45.4344 7.15778 46.0888 7.22667 46.8466C7.29556 47.6044 7.50222 48.2244 7.84667 48.7066C8.19111 49.1888 8.63889 49.4988 9.19 49.6366V57.6966H11.05V49.6366C11.6011 49.4988 12.0833 49.1888 12.4967 48.7066C12.91 48.2244 13.1167 47.6044 13.1167 46.8466C13.1167 46.0888 12.8067 45.4344 12.1867 44.8833C11.5667 44.3322 10.9122 44.0566 10.2233 44.0566ZM10.2233 47.9833C9.94778 47.9833 9.70667 47.88 9.5 47.6733C9.29333 47.4666 9.19 47.2255 9.19 46.95C9.19 46.6744 9.29333 46.4333 9.5 46.2266C9.70667 46.02 9.94778 45.9166 10.2233 45.9166C10.4989 45.9166 10.7056 46.02 10.8433 46.2266C10.9811 46.4333 11.05 46.6744 11.05 46.95C11.05 47.2255 10.9811 47.4666 10.8433 47.6733C10.7056 47.88 10.4989 47.9833 10.2233 47.9833ZM9.19 59.5566H11.05V61.4166H9.19V59.5566Z" fill="white"/></g><defs><clipPath id="clip0_1_100"><rect width="62.02" height="62" fill="white" transform="matrix(1 0 0 -1 0.5 62.45)"/></clipPath></defs></svg>