<svg width="100%" height="100%" style="overflow:visible;" preserveAspectRatio="none" viewBox="0 0 26 35.39" fill="none" xmlns="http://www.w3.org/2000/svg"><g clip-path="url(#clip0_1_782)"><path d="M10.1735 10.2893C9.07326 10.2893 8.04071 10.5009 7.07587 10.9241C6.11102 11.3473 5.26467 11.9186 4.5368 12.638C3.80894 13.3574 3.24188 14.1995 2.83563 15.1643C2.41246 16.1292 2.20087 17.1617 2.20087 18.262C2.20087 19.3623 2.41246 20.3948 2.83563 21.3596C3.24188 22.3245 3.80894 23.1666 4.5368 23.886C5.26467 24.6054 6.11102 25.1767 7.07587 25.5999C8.04071 26.0231 9.07326 26.2346 10.1735 26.2346C11.2738 26.2346 12.3063 26.0231 13.2712 25.5999C14.236 25.1767 15.0781 24.6054 15.7975 23.886C16.5169 23.1666 17.0882 22.3245 17.5114 21.3596C17.9346 20.3948 18.1462 19.3623 18.1462 18.262C18.1462 17.1617 17.9346 16.1292 17.5114 15.1643C17.0882 14.1995 16.5169 13.3574 15.7975 12.638C15.0781 11.9186 14.236 11.3473 13.2712 10.9241C12.3063 10.5009 11.2738 10.2893 10.1735 10.2893ZM10.1735 8.28348C11.5446 8.28348 12.8311 8.54585 14.0329 9.07059C15.2516 9.59533 16.3138 10.3105 17.2194 11.2161C18.125 12.1217 18.8402 13.1754 19.3649 14.3772C19.8727 15.596 20.1351 16.8909 20.152 18.262C20.152 19.4977 19.9362 20.6741 19.5046 21.7913C19.0729 22.9085 18.4763 23.8987 17.7145 24.762L22.7419 29.8147C22.945 30.0179 23.0466 30.2548 23.0466 30.5257C23.0466 30.7965 22.945 31.0335 22.7419 31.2366C22.6572 31.3382 22.5515 31.4101 22.4245 31.4524C22.2975 31.4947 22.1748 31.5159 22.0563 31.5159C21.9209 31.5159 21.794 31.4947 21.6755 31.4524C21.557 31.4101 21.447 31.3382 21.3454 31.2366L16.2673 26.1585C15.4209 26.8017 14.4772 27.3095 13.4362 27.6819C12.3952 28.0543 11.3076 28.2405 10.1735 28.2405C8.80243 28.2405 7.50751 27.9781 6.28876 27.4534C5.08693 26.9287 4.03322 26.2135 3.12762 25.3079C2.22203 24.4023 1.50686 23.3486 0.982117 22.1468C0.457377 20.928 0.195007 19.6331 0.195007 18.262C0.195007 16.8909 0.457377 15.596 0.982117 14.3772C1.50686 13.1754 2.22203 12.1217 3.12762 11.2161C4.03322 10.3105 5.08693 9.59533 6.28876 9.07059C7.50751 8.54585 8.80243 8.28348 10.1735 8.28348Z" fill="white"/></g><defs><clipPath id="clip0_1_782"><rect width="26" height="26" fill="white" transform="matrix(1 0 0 -1 0.195007 32.595)"/></clipPath></defs></svg>