<svg width="100%" height="100%" style="overflow:visible;" preserveAspectRatio="none" viewBox="0 0 24 24" fill="none" xmlns="http://www.w3.org/2000/svg"><g clip-path="url(#clip0_1_460)"><path d="M23.5312 19.3282C23.7656 19.4845 23.9141 19.6993 23.9766 19.9728C24.0391 20.2462 24 20.5001 23.8594 20.7345L22.5937 22.8439C22.4219 23.1251 22.207 23.3673 21.9492 23.5704C21.6914 23.7736 21.3984 23.922 21.0703 24.0157C20.5547 24.1564 19.875 24.2345 19.0312 24.2501C18.1875 24.2657 17.1797 24.0665 16.0078 23.6525C14.8359 23.2384 13.5 22.5392 12 21.5548C10.4844 20.5704 8.80469 19.1486 6.96094 17.2892C5.10156 15.4454 3.67969 13.7657 2.69531 12.2501C1.71094 10.7501 1.01172 9.41419 0.597654 8.24231C0.183592 7.07044 -0.0156272 6.06262 -2.21946e-06 5.21887C0.0156228 4.37512 0.0937478 3.69544 0.234373 3.17981C0.328123 2.85169 0.47656 2.55872 0.679685 2.30091C0.88281 2.04309 1.125 1.82825 1.40625 1.65637L3.51562 0.390749C3.75 0.250124 4.0039 0.211061 4.27734 0.273561C4.55078 0.336061 4.76562 0.484499 4.92187 0.718874L8.27344 5.7345C8.41406 5.96887 8.46484 6.22278 8.42578 6.49622C8.38672 6.76966 8.25781 6.9845 8.03906 7.14075L6.16406 8.61731C5.96094 8.77356 5.83203 8.97669 5.77734 9.22669C5.72265 9.47669 5.75781 9.71887 5.88281 9.95325C6.16406 10.4376 6.51953 11.0275 6.94922 11.7228C7.3789 12.4181 8.24219 13.4142 9.53906 14.7111C10.8359 16.0079 11.832 16.8712 12.5273 17.3009C13.2227 17.7306 13.8125 18.0861 14.2969 18.3673C14.5312 18.4923 14.7734 18.5275 15.0234 18.4728C15.2734 18.4181 15.4766 18.2892 15.6328 18.0861L17.1094 16.2111C17.2656 15.9923 17.4805 15.8634 17.7539 15.8243C18.0273 15.7853 18.2812 15.8361 18.5156 15.9767L20.8828 17.5704L23.5312 19.3282ZM13.6641 3.97669C13.5391 3.97669 13.4375 3.93762 13.3594 3.8595C13.2812 3.78137 13.2422 3.67981 13.2422 3.55481C13.2422 3.44544 13.2812 3.35169 13.3594 3.27356C13.4375 3.19544 13.5391 3.15637 13.6641 3.15637C14.7422 3.15637 15.7578 3.3595 16.7109 3.76575C17.6641 4.172 18.4961 4.73059 19.207 5.44153C19.918 6.15247 20.4844 6.99231 20.9062 7.96106C21.3125 8.91419 21.5156 9.92981 21.5156 11.0079C21.5156 11.1173 21.4766 11.215 21.3984 11.3009C21.3203 11.3868 21.2187 11.4298 21.0937 11.4298C20.9844 11.4298 20.8906 11.3868 20.8125 11.3009C20.7344 11.215 20.6953 11.1173 20.6953 11.0079C20.6953 10.0392 20.5078 9.12512 20.1328 8.26575C19.7578 7.422 19.2539 6.67981 18.6211 6.03919C17.9883 5.39856 17.2422 4.89856 16.3828 4.53919C15.5391 4.16419 14.6328 3.97669 13.6641 3.97669ZM13.6641 6.46106C13.5391 6.46106 13.4375 6.41809 13.3594 6.33216C13.2812 6.24622 13.2422 6.14856 13.2422 6.03919C13.2422 5.92981 13.2812 5.83606 13.3594 5.75794C13.4375 5.67981 13.5391 5.64075 13.6641 5.64075C14.3984 5.64075 15.0937 5.78137 15.75 6.06262C16.4062 6.34387 16.9766 6.72669 17.4609 7.21106C17.9453 7.69544 18.3281 8.26575 18.6094 8.922C18.8906 9.57825 19.0312 10.2736 19.0312 11.0079C19.0312 11.1173 18.9922 11.215 18.9141 11.3009C18.8359 11.3868 18.7344 11.4298 18.6094 11.4298C18.5 11.4298 18.4062 11.3868 18.3281 11.3009C18.25 11.215 18.2109 11.1173 18.2109 11.0079C18.2109 10.3829 18.0859 9.78919 17.8359 9.22669C17.6016 8.67981 17.2812 8.19934 16.875 7.78528C16.4687 7.37122 15.9844 7.047 15.4219 6.81262C14.875 6.57825 14.2891 6.46106 13.6641 6.46106ZM13.6641 8.94544C13.5391 8.94544 13.4375 8.90247 13.3594 8.81653C13.2812 8.73059 13.2422 8.63294 13.2422 8.52356C13.2422 8.41419 13.2812 8.31653 13.3594 8.23059C13.4375 8.14466 13.5391 8.10169 13.6641 8.10169C14.4609 8.11731 15.1406 8.40637 15.7031 8.96887C16.2656 9.53137 16.5469 10.2111 16.5469 11.0079C16.5469 11.1173 16.5078 11.215 16.4297 11.3009C16.3516 11.3868 16.2578 11.4298 16.1484 11.4298C16.0234 11.4298 15.9219 11.3868 15.8437 11.3009C15.7656 11.215 15.7266 11.1173 15.7266 11.0079C15.7266 10.4298 15.5234 9.94153 15.1172 9.54309C14.7109 9.14466 14.2266 8.94544 13.6641 8.94544Z" fill="white"/></g><defs><clipPath id="clip0_1_460"><rect width="24" height="24" fill="white" transform="matrix(1 0 0 -1 0 24.25)"/></clipPath></defs></svg>