<svg width="65" height="65" viewBox="0 0 65 65" fill="none" xmlns="http://www.w3.org/2000/svg">
<rect x="0.5" y="0.5" width="64" height="64" rx="32" fill="#FFCC7E"/>
<path d="M41.0723 25.4395C40.4082 24.1309 39.4854 23.0176 38.3037 22.0996C37.1221 21.1816 35.7988 20.5664 34.334 20.2539C32.8105 19.9219 31.3018 19.9268 29.8076 20.2686C28.3135 20.6104 26.9707 21.2598 25.7793 22.2168C25.1934 22.6855 24.666 23.2178 24.1973 23.8135C23.7285 24.4092 23.3281 25.0391 22.9961 25.7031C22.6641 26.3867 22.415 27.0947 22.249 27.8271C22.083 28.5596 22 29.3066 22 30.0684C22 30.8691 22.1172 31.6797 22.3516 32.5C22.5859 33.3008 22.918 34.0771 23.3477 34.8291C23.7773 35.5811 24.2852 36.2793 24.8711 36.9238C25.4766 37.5879 26.1406 38.1641 26.8633 38.6523V39.6777C26.8633 39.8535 26.8779 40.0635 26.9072 40.3076C26.9365 40.5518 27.0586 40.791 27.2734 41.0254C27.4883 41.2402 27.7471 41.377 28.0498 41.4355C28.3525 41.4941 28.6309 41.5234 28.8848 41.5234H35.3008C35.6328 41.5234 35.9258 41.4746 36.1797 41.377C36.4336 41.2793 36.6484 41.1426 36.8242 40.9668C37.0586 40.7324 37.1953 40.4736 37.2344 40.1904C37.2734 39.9072 37.2832 39.6875 37.2637 39.5312V38.6523C38.2402 38.0078 39.0996 37.1875 39.8418 36.1914C40.6035 35.2148 41.1797 34.1406 41.5703 32.9688C41.9609 31.7969 42.127 30.5664 42.0684 29.2773C42.0293 27.9883 41.6973 26.709 41.0723 25.4395ZM36.1211 45.0098C36.082 45.0098 36.043 45.0049 36.0039 44.9951C35.9648 44.9854 35.9258 44.9707 35.8867 44.9512C34.6367 44.5996 33.3623 44.4238 32.0635 44.4238C30.7646 44.4238 29.4805 44.5996 28.2109 44.9512C27.9961 45.0293 27.7812 45.0098 27.5664 44.8926C27.3516 44.7754 27.2148 44.5996 27.1562 44.3652C27.1367 44.3066 27.1221 44.248 27.1123 44.1895C27.1025 44.1309 27.1074 44.0723 27.127 44.0137C27.127 43.9551 27.1367 43.9014 27.1562 43.8525C27.1758 43.8037 27.1953 43.75 27.2148 43.6914C27.2539 43.6523 27.293 43.6084 27.332 43.5596C27.3711 43.5107 27.4102 43.4668 27.4492 43.4277C27.4883 43.4082 27.5322 43.3838 27.5811 43.3545C27.6299 43.3252 27.6836 43.3008 27.7422 43.2812C29.168 42.8906 30.6084 42.6953 32.0635 42.6953C33.5186 42.6953 34.959 42.8906 36.3848 43.2812C36.5996 43.3594 36.7705 43.501 36.8975 43.7061C37.0244 43.9111 37.0488 44.1309 36.9707 44.3652C36.9121 44.5605 36.8047 44.7168 36.6484 44.834C36.4922 44.9512 36.3164 45.0098 36.1211 45.0098Z" fill="#161616"/>
</svg>
