<svg width="81" height="80" viewBox="0 0 81 80" fill="none" xmlns="http://www.w3.org/2000/svg">
<rect x="0.330017" width="80" height="80" rx="40" fill="#BDEFFB"/>
<path d="M49.7969 34.9317L40.4512 40.3516C40.2559 40.4493 40.0508 40.4981 39.8359 40.4981C39.6211 40.4981 39.416 40.4493 39.2207 40.3516L29.875 34.9317C29.543 34.7364 29.3428 34.4483 29.2744 34.0674C29.2061 33.6866 29.2988 33.3496 29.5527 33.0567C29.7285 32.8614 29.9141 32.6856 30.1094 32.5293C30.3047 32.3731 30.5098 32.2364 30.7246 32.1192L37.2871 28.4864C37.9902 28.0762 38.8398 27.8711 39.8359 27.8711C40.832 27.8711 41.6816 28.0762 42.3848 28.4864L48.9473 32.1192C49.1621 32.2364 49.3721 32.3731 49.5771 32.5293C49.7822 32.6856 49.9727 32.8614 50.1484 33.0567C50.3828 33.3496 50.4658 33.6866 50.3975 34.0674C50.3291 34.4483 50.1289 34.7364 49.7969 34.9317ZM39.1328 42.5782V50.8692C39.1328 51.3184 38.9473 51.6651 38.5762 51.9092C38.2051 52.1534 37.8047 52.1778 37.375 51.9825C36.75 51.67 36.0566 51.3184 35.2949 50.9278C34.5137 50.5176 33.7812 50.1319 33.0977 49.7705C32.4141 49.4092 31.8379 49.1016 31.3691 48.8477C30.9199 48.5938 30.6953 48.4668 30.6953 48.4668C29.9531 48.0567 29.3184 47.3926 28.791 46.4746C28.2637 45.5567 28 44.6582 28 43.7793V37.5391C28 37.0508 28.2002 36.6895 28.6006 36.4551C29.001 36.2207 29.4062 36.2207 29.8164 36.4551L38.5469 41.4942C38.7227 41.6114 38.8643 41.7676 38.9717 41.9629C39.0791 42.1582 39.1328 42.3633 39.1328 42.5782ZM40.5391 42.5782V50.8692C40.5391 51.3184 40.7246 51.6651 41.0957 51.9092C41.4668 52.1534 41.8672 52.1778 42.2969 51.9825C42.9219 51.67 43.6152 51.3184 44.377 50.9278C45.1582 50.5176 45.8906 50.1319 46.5742 49.7705C47.2578 49.4092 47.834 49.1016 48.3027 48.8477C48.752 48.5938 48.9766 48.4668 48.9766 48.4668C49.7188 48.0567 50.3535 47.3926 50.8809 46.4746C51.4082 45.5567 51.6719 44.6582 51.6719 43.7793V37.5391C51.6719 37.0508 51.4717 36.6895 51.0713 36.4551C50.6709 36.2207 50.2656 36.2207 49.8555 36.4551L41.125 41.4942C40.9492 41.6114 40.8076 41.7676 40.7002 41.9629C40.5928 42.1582 40.5391 42.3633 40.5391 42.5782Z" fill="#161616"/>
</svg>
