<svg width="81" height="80" viewBox="0 0 81 80" fill="none" xmlns="http://www.w3.org/2000/svg">
<rect x="0.639999" width="80" height="80" rx="40" fill="#FFE3EE"/>
<path d="M43.5605 44.834C43.5605 45.9082 43.3408 46.9141 42.9014 47.8516C42.4619 48.7891 41.8711 49.5898 41.1289 50.2539C40.4648 50.8594 39.7129 51.3232 38.873 51.6455C38.0332 51.9678 37.1738 52.1289 36.2949 52.1289C35.2793 52.1289 34.332 51.9336 33.4531 51.543C32.5742 51.1719 31.8027 50.6543 31.1387 49.9902C30.4746 49.3262 29.957 48.5547 29.5859 47.6758C29.1953 46.7969 29 45.8496 29 44.834C29 44.2676 29.0732 43.7012 29.2197 43.1348C29.3662 42.5684 29.5664 42.0215 29.8203 41.4941C30.0938 40.9863 30.4258 40.5127 30.8164 40.0732C31.207 39.6338 31.6367 39.248 32.1055 38.916C32.2617 38.7988 32.4277 38.7695 32.6035 38.8281C32.7793 38.8867 32.9062 39.0039 32.9844 39.1797C33.2578 39.7461 33.5947 40.2832 33.9951 40.791C34.3955 41.2988 34.8398 41.7578 35.3281 42.168C35.8359 42.5781 36.373 42.9297 36.9395 43.2227C37.5059 43.5156 38.1016 43.75 38.7266 43.9258C39.1172 44.0234 39.5127 44.1016 39.9131 44.1602C40.3135 44.2188 40.7188 44.248 41.1289 44.248C41.4219 44.248 41.71 44.2334 41.9932 44.2041C42.2764 44.1748 42.5547 44.1309 42.8281 44.0723C43.0039 44.0527 43.165 44.0918 43.3115 44.1895C43.458 44.2871 43.541 44.4238 43.5605 44.5996C43.5605 44.6387 43.5605 44.6777 43.5605 44.7168C43.5605 44.7559 43.5605 44.7949 43.5605 44.834ZM48.3945 35.166C48.3945 35.9473 48.2676 36.7188 48.0137 37.4805C47.7598 38.2422 47.3887 38.9355 46.9004 39.5605C46.4316 40.2051 45.8652 40.7471 45.2012 41.1865C44.5371 41.626 43.8145 41.9531 43.0332 42.168C42.7402 42.2461 42.4326 42.3096 42.1104 42.3584C41.7881 42.4072 41.4609 42.4316 41.1289 42.4316C40.7969 42.4316 40.4697 42.4072 40.1475 42.3584C39.8252 42.3096 39.5176 42.2461 39.2246 42.168C38.4434 41.9531 37.7207 41.626 37.0566 41.1865C36.3926 40.7471 35.8262 40.2051 35.3574 39.5605C34.8691 38.9355 34.498 38.2422 34.2441 37.4805C33.9902 36.7188 33.8633 35.9473 33.8633 35.166C33.8633 34.1504 34.0488 33.2031 34.4199 32.3242C34.8105 31.4453 35.333 30.6738 35.9873 30.0098C36.6416 29.3457 37.4082 28.8281 38.2871 28.457C39.1855 28.0664 40.1328 27.8711 41.1289 27.8711C42.125 27.8711 43.0723 28.0664 43.9707 28.457C44.8496 28.8281 45.6162 29.3457 46.2705 30.0098C46.9248 30.6738 47.4473 31.4453 47.8379 32.3242C48.209 33.2031 48.3945 34.1504 48.3945 35.166ZM53.2578 44.834C53.2578 45.4395 53.1846 46.0254 53.0381 46.5918C52.8916 47.1582 52.6816 47.7051 52.4082 48.2324C52.1348 48.7402 51.8027 49.2139 51.4121 49.6533C51.0215 50.0928 50.5918 50.4883 50.123 50.8398C49.6348 51.1719 49.1172 51.4404 48.5703 51.6455C48.0234 51.8506 47.457 51.9922 46.8711 52.0703C46.2852 52.1289 45.6992 52.124 45.1133 52.0557C44.5273 51.9873 43.9609 51.8555 43.4141 51.6602C43.2188 51.582 43.1016 51.4404 43.0625 51.2354C43.0234 51.0303 43.0723 50.8496 43.209 50.6934C43.9121 49.873 44.4492 48.96 44.8203 47.9541C45.1914 46.9482 45.377 45.9082 45.377 44.834C45.377 44.6387 45.3672 44.4385 45.3477 44.2334C45.3281 44.0283 45.2988 43.8281 45.2598 43.6328C45.2598 43.5742 45.2646 43.5205 45.2744 43.4717C45.2842 43.4229 45.2988 43.3691 45.3184 43.3105C45.3574 43.2715 45.3916 43.2324 45.4209 43.1934C45.4502 43.1543 45.4941 43.1152 45.5527 43.0762C46.3535 42.627 47.0713 42.0703 47.7061 41.4062C48.3408 40.7422 48.8633 40 49.2734 39.1797C49.3516 39.0039 49.4785 38.8867 49.6543 38.8281C49.8301 38.7695 49.9961 38.7988 50.1523 38.916C50.6211 39.248 51.0508 39.6338 51.4414 40.0732C51.832 40.5127 52.1641 40.9863 52.4375 41.4941C52.6914 42.0215 52.8916 42.5684 53.0381 43.1348C53.1846 43.7012 53.2578 44.2676 53.2578 44.834Z" fill="#161616"/>
</svg>
