<svg width="81" height="80" viewBox="0 0 81 80" fill="none" xmlns="http://www.w3.org/2000/svg">
<rect x="0.980011" width="80" height="80" rx="40" fill="#FFCC7E"/>
<path d="M48.0046 38.4473H44.2546V29.7168C44.2546 28.7012 44.0154 28.1055 43.5368 27.9297C43.0583 27.7539 42.4773 28.0469 41.7937 28.8086L32.6238 39.2383C32.0574 39.8828 31.8767 40.4297 32.0818 40.8789C32.2868 41.3281 32.8093 41.5527 33.6492 41.5527H37.3992V50.2832C37.3992 51.2988 37.6384 51.8945 38.1169 52.0703C38.5954 52.2461 39.1765 51.9531 39.8601 51.1914L49.03 40.7617C49.5964 40.1172 49.7771 39.5703 49.572 39.1211C49.3669 38.6719 48.8445 38.4473 48.0046 38.4473Z" fill="#161616"/>
</svg>
