<svg width="64" height="65" viewBox="0 0 64 65" fill="none" xmlns="http://www.w3.org/2000/svg">
<rect y="0.5" width="64" height="64" rx="32" fill="#BDEFFB"/>
<path d="M24.3652 23.8867C24.1113 23.8867 23.8916 23.7988 23.7061 23.623C23.5205 23.4473 23.4277 23.2227 23.4277 22.9492V20.7812C23.4277 20.5273 23.5205 20.3076 23.7061 20.1221C23.8916 19.9365 24.1113 19.8438 24.3652 19.8438C24.6191 19.8438 24.8389 19.9365 25.0244 20.1221C25.21 20.3076 25.3027 20.5273 25.3027 20.7812V22.9492C25.3027 23.2227 25.21 23.4473 25.0244 23.623C24.8389 23.7988 24.6191 23.8867 24.3652 23.8867ZM29.375 23.8867C29.1211 23.8867 28.9014 23.7988 28.7158 23.623C28.5303 23.4473 28.4375 23.2227 28.4375 22.9492V20.7812C28.4375 20.5273 28.5303 20.3076 28.7158 20.1221C28.9014 19.9365 29.1211 19.8438 29.375 19.8438C29.6289 19.8438 29.8486 19.9365 30.0342 20.1221C30.2197 20.3076 30.3125 20.5273 30.3125 20.7812V22.9492C30.3125 23.2227 30.2197 23.4473 30.0342 23.623C29.8486 23.7988 29.6289 23.8867 29.375 23.8867ZM34.3555 23.8867C34.1016 23.8867 33.8818 23.7988 33.6963 23.623C33.5107 23.4473 33.418 23.2227 33.418 22.9492V20.7812C33.418 20.5273 33.5107 20.3076 33.6963 20.1221C33.8818 19.9365 34.1016 19.8438 34.3555 19.8438C34.6094 19.8438 34.8291 19.9365 35.0146 20.1221C35.2002 20.3076 35.293 20.5273 35.293 20.7812V22.9492C35.293 23.2227 35.2002 23.4473 35.0146 23.623C34.8291 23.7988 34.6094 23.8867 34.3555 23.8867ZM44.668 34.0527C44.668 33.2324 44.5215 32.4707 44.2285 31.7676C43.9355 31.0449 43.5303 30.4053 43.0127 29.8486C42.4951 29.292 41.8848 28.8379 41.1816 28.4863C40.4785 28.1348 39.7363 27.9297 38.9551 27.8711C38.4863 27.1094 37.8564 26.4941 37.0654 26.0254C36.2744 25.5566 35.4102 25.3223 34.4727 25.3223H25.2441C23.7988 25.3223 22.5635 25.8398 21.5381 26.875C20.5127 27.9102 20 29.1504 20 30.5957V31.2402H39.7168V30.5957C39.7168 30.4785 39.7119 30.3613 39.7021 30.2441C39.6924 30.127 39.6777 30.0098 39.6582 29.8926C40.5566 30.166 41.3037 30.6836 41.8994 31.4453C42.4951 32.207 42.793 33.0762 42.793 34.0527C42.793 35.0488 42.5049 35.9229 41.9287 36.6748C41.3525 37.4268 40.6152 37.9395 39.7168 38.2129V32.5H20V39.7363C20 41.1816 20.5127 42.4219 21.5381 43.457C22.5635 44.4922 23.7988 45.0098 25.2441 45.0098H34.4727C35.8398 45.0098 37.0215 44.541 38.0176 43.6035C39.0137 42.666 39.5703 41.5234 39.6875 40.1758C41.1133 39.8828 42.2998 39.1699 43.2471 38.0371C44.1943 36.9043 44.668 35.5762 44.668 34.0527Z" fill="#161616"/>
</svg>
