<svg width="55" height="55" viewBox="0 0 55 55" fill="none" xmlns="http://www.w3.org/2000/svg">
<rect width="55" height="55" rx="27.5" fill="#BDEFFB"/>
<g clip-path="url(#clip0_1_25)">
<path d="M12.5 41.917C12.5 41.9053 12.6726 41.8953 13.0179 41.8872C13.3632 41.8791 13.7844 41.875 14.2816 41.875H35.4948C35.9643 41.875 36.3718 41.8791 36.717 41.8872C37.0623 41.8953 37.2349 41.9053 37.2349 41.917C37.2349 41.9281 37.0623 41.9377 36.717 41.9458C36.3718 41.9539 35.9643 41.958 35.4948 41.958H14.2816C13.7844 41.958 13.3632 41.9539 13.0179 41.9458C12.6726 41.9377 12.5 41.9281 12.5 41.917ZM12.5 42.083C12.5 42.0719 12.6726 42.0623 13.0179 42.0542C13.3632 42.0461 13.7844 42.042 14.2816 42.042H30.1915C30.661 42.042 31.0685 42.0461 31.4137 42.0542C31.759 42.0623 31.9316 42.0719 31.9316 42.083C31.9316 42.0947 31.759 42.1047 31.4137 42.1128C31.0685 42.1209 30.661 42.125 30.1915 42.125H14.2816C13.7844 42.125 13.3632 42.1209 13.0179 42.1128C12.6726 42.1047 12.5 42.0947 12.5 42.083ZM31.6002 41.625C33.506 41.625 35.3567 41.6331 37.1521 41.6494C38.9475 41.6657 40.5495 41.6888 41.9582 41.7188C42.3173 41.7266 42.5106 41.7363 42.5382 41.748C42.5658 41.7598 42.4139 41.7699 42.0825 41.7783C41.751 41.7868 41.3436 41.7912 40.8602 41.7915C40.3769 41.7918 39.9556 41.7884 39.5966 41.7812C38.4917 41.7578 37.2556 41.7397 35.8884 41.7271C34.5211 41.7144 33.0917 41.708 31.6002 41.708C30.7992 41.7087 30.0119 41.7109 29.2385 41.7148C28.4651 41.7188 27.7056 41.7243 26.9598 41.7314C26.214 41.7393 25.5166 41.7484 24.8675 41.7588C24.2184 41.7692 23.6038 41.7812 23.0237 41.7949C22.4713 41.8086 21.9741 41.8234 21.5322 41.8394C21.0902 41.8553 20.7312 41.8721 20.455 41.8896C20.1511 41.9066 19.9232 41.9243 19.7713 41.9429C19.6194 41.9614 19.5573 41.9801 19.5849 41.999V42C19.5849 42.0404 19.9025 42.0781 20.5378 42.1133C21.1731 42.1491 22.0363 42.1802 23.1273 42.2065C24.2184 42.2329 25.482 42.2536 26.9183 42.2686C28.3823 42.2842 29.9429 42.292 31.6002 42.292C33.1193 42.292 34.5626 42.2853 35.9298 42.272C37.2971 42.2586 38.5331 42.2409 39.638 42.2188C39.9971 42.2109 40.4252 42.2075 40.9224 42.2085C41.4196 42.2095 41.8201 42.2142 42.1239 42.2227C42.4554 42.2318 42.6004 42.242 42.5589 42.2534C42.5175 42.2648 42.3034 42.2741 41.9167 42.2812C40.5633 42.3092 39.0096 42.3319 37.2556 42.3491C35.5017 42.3664 33.6165 42.375 31.6002 42.375C29.4457 42.375 27.4155 42.3652 25.5097 42.3457C23.6314 42.3255 21.9879 42.2985 20.5792 42.2646C19.1706 42.2308 18.0657 42.1911 17.2647 42.1455C16.436 42.0999 16.0217 42.0514 16.0217 42C16.0217 41.9759 16.1184 41.952 16.3117 41.9282C16.5051 41.9045 16.7813 41.8812 17.1404 41.8584C17.5271 41.8356 18.0036 41.814 18.5698 41.7935C19.136 41.7729 19.7782 41.7542 20.4964 41.7373C21.2145 41.7197 22.0017 41.7039 22.858 41.6899C23.7143 41.6759 24.612 41.6644 25.5511 41.6553C26.5178 41.6455 27.5053 41.638 28.5135 41.6328C29.5217 41.6276 30.5367 41.625 31.5587 41.625H31.6002Z" fill="#161616"/>
</g>
<defs>
<clipPath id="clip0_1_25">
<rect width="42.4264" height="1" fill="white" transform="matrix(1 0 0 -1 12.5 42.5)"/>
</clipPath>
</defs>
</svg>
