<svg width="18" height="19" viewBox="0 0 18 19" fill="none" xmlns="http://www.w3.org/2000/svg">
<path d="M4.28906 1.15674C4.44141 1.15674 4.57031 1.20947 4.67578 1.31494C4.78125 1.42041 4.83398 1.54346 4.83398 1.68408V2.28174H9.75586V1.68408C9.75586 1.54346 9.80859 1.42041 9.91406 1.31494C10.0195 1.20947 10.1484 1.15674 10.3008 1.15674C10.4414 1.15674 10.5645 1.20947 10.6699 1.31494C10.7754 1.42041 10.8281 1.54346 10.8281 1.68408V2.29932C11.4141 2.34619 11.9326 2.46924 12.3838 2.66846C12.835 2.86768 13.2246 3.13721 13.5527 3.47705C13.916 3.87549 14.1797 4.33838 14.3438 4.86572C14.5078 5.39307 14.5898 5.96143 14.5898 6.5708V12.9341C14.5898 13.5435 14.5078 14.1118 14.3438 14.6392C14.1797 15.1665 13.916 15.6294 13.5527 16.0278C13.1777 16.4263 12.7178 16.7251 12.1729 16.9243C11.6279 17.1235 11.0039 17.2231 10.3008 17.2231H4.28906C3.58594 17.2231 2.96191 17.1235 2.41699 16.9243C1.87207 16.7251 1.41211 16.4263 1.03711 16.0278C0.673828 15.6294 0.410156 15.1665 0.246094 14.6392C0.0820313 14.1118 0 13.5435 0 12.9341V6.5708C0 5.96143 0.0820313 5.39307 0.246094 4.86572C0.410156 4.33838 0.673828 3.87549 1.03711 3.47705C1.36523 3.13721 1.75488 2.86768 2.20605 2.66846C2.65723 2.46924 3.17578 2.34619 3.76172 2.29932V1.68408C3.76172 1.54346 3.81445 1.42041 3.91992 1.31494C4.02539 1.20947 4.14844 1.15674 4.28906 1.15674ZM3.76172 3.37158C3.30469 3.41846 2.91797 3.51514 2.60156 3.66162C2.28516 3.80811 2.02734 3.99268 1.82812 4.21533C1.59375 4.47314 1.41211 4.78955 1.2832 5.16455C1.1543 5.53955 1.08984 5.97314 1.08984 6.46533H13.5C13.5 5.97314 13.4355 5.53955 13.3066 5.16455C13.1777 4.78955 12.9961 4.47314 12.7617 4.21533C12.5625 3.99268 12.3047 3.80811 11.9883 3.66162C11.6719 3.51514 11.2852 3.41846 10.8281 3.37158V3.93408C10.8281 4.08643 10.7754 4.21533 10.6699 4.3208C10.5645 4.42627 10.4414 4.479 10.3008 4.479C10.1484 4.479 10.0195 4.42627 9.91406 4.3208C9.80859 4.21533 9.75586 4.08643 9.75586 3.93408V3.354H4.83398V3.93408C4.83398 4.08643 4.78125 4.21533 4.67578 4.3208C4.57031 4.42627 4.44141 4.479 4.28906 4.479C4.14844 4.479 4.02539 4.42627 3.91992 4.3208C3.81445 4.21533 3.76172 4.08643 3.76172 3.93408V3.37158ZM13.5 7.55518H1.08984V12.9341C1.08984 13.4614 1.15137 13.9214 1.27441 14.314C1.39746 14.7065 1.58203 15.0317 1.82812 15.2896C2.07422 15.5474 2.39648 15.7554 2.79492 15.9136C3.19336 16.0718 3.69141 16.1509 4.28906 16.1509H10.3008C10.8984 16.1509 11.3965 16.0718 11.7949 15.9136C12.1934 15.7554 12.5156 15.5474 12.7617 15.2896C13.0078 15.0317 13.1924 14.7065 13.3154 14.314C13.4385 13.9214 13.5 13.4614 13.5 12.9341V7.55518ZM3.97266 10.4731C3.97266 10.3208 4.02539 10.1919 4.13086 10.0864C4.23633 9.98096 4.36523 9.92822 4.51758 9.92822C4.66992 9.92822 4.79883 9.98096 4.9043 10.0864C5.00977 10.1919 5.0625 10.3208 5.0625 10.4731C5.0625 10.6138 5.00977 10.7368 4.9043 10.8423C4.79883 10.9478 4.66992 11.0005 4.51758 11.0005C4.36523 11.0005 4.23633 10.9478 4.13086 10.8423C4.02539 10.7368 3.97266 10.6138 3.97266 10.4731ZM6.75 10.4731C6.75 10.3208 6.80273 10.1919 6.9082 10.0864C7.01367 9.98096 7.14258 9.92822 7.29492 9.92822C7.44727 9.92822 7.57617 9.98096 7.68164 10.0864C7.78711 10.1919 7.83984 10.3208 7.83984 10.4731C7.83984 10.6138 7.78711 10.7368 7.68164 10.8423C7.57617 10.9478 7.44727 11.0005 7.29492 11.0005C7.14258 11.0005 7.01367 10.9478 6.9082 10.8423C6.80273 10.7368 6.75 10.6138 6.75 10.4731ZM9.52734 10.4731C9.52734 10.3208 9.58008 10.1919 9.68555 10.0864C9.79102 9.98096 9.91992 9.92822 10.0723 9.92822C10.2246 9.92822 10.3535 9.98096 10.459 10.0864C10.5645 10.1919 10.6172 10.3208 10.6172 10.4731C10.6172 10.6138 10.5645 10.7368 10.459 10.8423C10.3535 10.9478 10.2246 11.0005 10.0723 11.0005C9.91992 11.0005 9.79102 10.9478 9.68555 10.8423C9.58008 10.7368 9.52734 10.6138 9.52734 10.4731ZM3.97266 12.7231C3.97266 12.5708 4.02539 12.4419 4.13086 12.3364C4.23633 12.231 4.36523 12.1782 4.51758 12.1782C4.66992 12.1782 4.79883 12.231 4.9043 12.3364C5.00977 12.4419 5.0625 12.5708 5.0625 12.7231C5.0625 12.8638 5.00977 12.9868 4.9043 13.0923C4.79883 13.1978 4.66992 13.2505 4.51758 13.2505C4.36523 13.2505 4.23633 13.1978 4.13086 13.0923C4.02539 12.9868 3.97266 12.8638 3.97266 12.7231ZM6.75 12.7231C6.75 12.5708 6.80273 12.4419 6.9082 12.3364C7.01367 12.231 7.14258 12.1782 7.29492 12.1782C7.44727 12.1782 7.57617 12.231 7.68164 12.3364C7.78711 12.4419 7.83984 12.5708 7.83984 12.7231C7.83984 12.8638 7.78711 12.9868 7.68164 13.0923C7.57617 13.1978 7.44727 13.2505 7.29492 13.2505C7.14258 13.2505 7.01367 13.1978 6.9082 13.0923C6.80273 12.9868 6.75 12.8638 6.75 12.7231ZM9.52734 12.7231C9.52734 12.5708 9.58008 12.4419 9.68555 12.3364C9.79102 12.231 9.91992 12.1782 10.0723 12.1782C10.2246 12.1782 10.3535 12.231 10.459 12.3364C10.5645 12.4419 10.6172 12.5708 10.6172 12.7231C10.6172 12.8638 10.5645 12.9868 10.459 13.0923C10.3535 13.1978 10.2246 13.2505 10.0723 13.2505C9.91992 13.2505 9.79102 13.1978 9.68555 13.0923C9.58008 12.9868 9.52734 12.8638 9.52734 12.7231Z" fill="#474747"/>
</svg>
