<svg width="14" height="19" viewBox="0 0 14 19" fill="none" xmlns="http://www.w3.org/2000/svg">
<g clip-path="url(#clip0_1_352)">
<path d="M12.3125 7.0498C12.2656 5.62012 11.7734 4.4248 10.8359 3.46387C9.875 2.52637 8.67969 2.03418 7.25 1.9873C5.82031 2.03418 4.625 2.52637 3.66406 3.46387C2.72656 4.4248 2.23438 5.62012 2.1875 7.0498C2.1875 7.49512 2.36328 8.16309 2.71484 9.05371C3.11328 9.94434 3.61719 10.8818 4.22656 11.8662C4.74219 12.6865 5.25781 13.4717 5.77344 14.2217C6.3125 14.9717 6.80469 15.6279 7.25 16.1904C7.69531 15.6279 8.1875 14.9717 8.72656 14.2217C9.26562 13.4717 9.78125 12.6865 10.2734 11.8662C10.8828 10.8818 11.3867 9.94434 11.7852 9.05371C12.1367 8.16309 12.3125 7.49512 12.3125 7.0498ZM14 7.0498C13.9531 8.10449 13.5781 9.32324 12.875 10.7061C12.1484 12.0889 11.3281 13.4248 10.4141 14.7139C9.5 16.0264 8.72656 17.0693 8.09375 17.8428C7.85938 18.124 7.57812 18.2646 7.25 18.2646C6.92188 18.2646 6.64062 18.124 6.40625 17.8428C5.77344 17.0693 5 16.0264 4.08594 14.7139C3.17188 13.4248 2.35156 12.0889 1.625 10.7061C0.921875 9.32324 0.546875 8.10449 0.5 7.0498C0.546875 5.12793 1.20312 3.53418 2.46875 2.26855C3.73438 1.00293 5.32812 0.34668 7.25 0.299805C9.17188 0.34668 10.7656 1.00293 12.0312 2.26855C13.2969 3.53418 13.9531 5.12793 14 7.0498ZM8.375 7.0498C8.375 6.72168 8.26953 6.45215 8.05859 6.24121C7.84766 6.03027 7.57812 5.9248 7.25 5.9248C6.92188 5.9248 6.65234 6.03027 6.44141 6.24121C6.23047 6.45215 6.125 6.72168 6.125 7.0498C6.125 7.37793 6.23047 7.64746 6.44141 7.8584C6.65234 8.06934 6.92188 8.1748 7.25 8.1748C7.57812 8.1748 7.84766 8.06934 8.05859 7.8584C8.26953 7.64746 8.375 7.37793 8.375 7.0498ZM4.4375 7.0498C4.46094 5.99512 4.92969 5.18652 5.84375 4.62402C6.78125 4.1084 7.71875 4.1084 8.65625 4.62402C9.57031 5.18652 10.0391 5.99512 10.0625 7.0498C10.0391 8.10449 9.57031 8.91309 8.65625 9.47559C7.71875 9.99121 6.78125 9.99121 5.84375 9.47559C4.92969 8.91309 4.46094 8.10449 4.4375 7.0498Z" fill="white"/>
</g>
<defs>
<clipPath id="clip0_1_352">
<rect width="13.5" height="18" fill="white" transform="matrix(1 0 0 -1 0.5 18.2998)"/>
</clipPath>
</defs>
</svg>
