<svg width="64" height="63" viewBox="0 0 64 63" fill="none" xmlns="http://www.w3.org/2000/svg">
<rect x="0.329987" width="63" height="63" rx="31.5" fill="#BDEFFB"/>
<path d="M24 30.5215V26.959C24 25.8496 24.1875 24.9121 24.5625 24.1465C24.9219 23.3965 25.418 22.8379 26.0508 22.4707C26.6836 22.1035 27.4219 21.9511 28.2656 22.0136C29.1094 22.0761 30.0078 22.3886 30.9609 22.9511L37.1484 26.4902C38.1016 27.0527 38.8203 27.6855 39.3047 28.3886C39.7891 29.0761 40.0312 29.7871 40.0312 30.5215C40.0312 31.2558 39.7891 31.9668 39.3047 32.6543C38.8203 33.3574 38.1016 33.9902 37.1484 34.5527L30.9609 38.0918C30.0078 38.6543 29.1094 38.9668 28.2656 39.0293C27.4219 39.0918 26.6836 38.9394 26.0508 38.5722C25.418 38.2051 24.9219 37.6465 24.5625 36.8965C24.1875 36.1308 24 35.1933 24 34.084V30.5215Z" fill="#161616"/>
</svg>
