<svg width="15" height="17" viewBox="0 0 15 17" fill="none" xmlns="http://www.w3.org/2000/svg">
<path d="M4.28906 0.189941C4.44141 0.189941 4.57031 0.242676 4.67578 0.348145C4.78125 0.453613 4.83398 0.57666 4.83398 0.717285V1.31494H9.75586V0.717285C9.75586 0.57666 9.80859 0.453613 9.91406 0.348145C10.0195 0.242676 10.1484 0.189941 10.3008 0.189941C10.4414 0.189941 10.5645 0.242676 10.6699 0.348145C10.7754 0.453613 10.8281 0.57666 10.8281 0.717285V1.33252C11.4141 1.37939 11.9326 1.50244 12.3838 1.70166C12.835 1.90088 13.2246 2.17041 13.5527 2.51025C13.916 2.90869 14.1797 3.37158 14.3438 3.89893C14.5078 4.42627 14.5898 4.99463 14.5898 5.604V11.9673C14.5898 12.5767 14.5078 13.145 14.3438 13.6724C14.1797 14.1997 13.916 14.6626 13.5527 15.061C13.1777 15.4595 12.7178 15.7583 12.1729 15.9575C11.6279 16.1567 11.0039 16.2563 10.3008 16.2563H4.28906C3.58594 16.2563 2.96191 16.1567 2.41699 15.9575C1.87207 15.7583 1.41211 15.4595 1.03711 15.061C0.673828 14.6626 0.410156 14.1997 0.246094 13.6724C0.0820313 13.145 0 12.5767 0 11.9673V5.604C0 4.99463 0.0820313 4.42627 0.246094 3.89893C0.410156 3.37158 0.673828 2.90869 1.03711 2.51025C1.36523 2.17041 1.75488 1.90088 2.20605 1.70166C2.65723 1.50244 3.17578 1.37939 3.76172 1.33252V0.717285C3.76172 0.57666 3.81445 0.453613 3.91992 0.348145C4.02539 0.242676 4.14844 0.189941 4.28906 0.189941ZM3.76172 2.40479C3.30469 2.45166 2.91797 2.54834 2.60156 2.69482C2.28516 2.84131 2.02734 3.02588 1.82812 3.24854C1.59375 3.50635 1.41211 3.82275 1.2832 4.19775C1.1543 4.57275 1.08984 5.00635 1.08984 5.49854H13.5C13.5 5.00635 13.4355 4.57275 13.3066 4.19775C13.1777 3.82275 12.9961 3.50635 12.7617 3.24854C12.5625 3.02588 12.3047 2.84131 11.9883 2.69482C11.6719 2.54834 11.2852 2.45166 10.8281 2.40479V2.96729C10.8281 3.11963 10.7754 3.24854 10.6699 3.354C10.5645 3.45947 10.4414 3.51221 10.3008 3.51221C10.1484 3.51221 10.0195 3.45947 9.91406 3.354C9.80859 3.24854 9.75586 3.11963 9.75586 2.96729V2.38721H4.83398V2.96729C4.83398 3.11963 4.78125 3.24854 4.67578 3.354C4.57031 3.45947 4.44141 3.51221 4.28906 3.51221C4.14844 3.51221 4.02539 3.45947 3.91992 3.354C3.81445 3.24854 3.76172 3.11963 3.76172 2.96729V2.40479ZM13.5 6.58838H1.08984V11.9673C1.08984 12.4946 1.15137 12.9546 1.27441 13.3472C1.39746 13.7397 1.58203 14.0649 1.82812 14.3228C2.07422 14.5806 2.39648 14.7886 2.79492 14.9468C3.19336 15.105 3.69141 15.1841 4.28906 15.1841H10.3008C10.8984 15.1841 11.3965 15.105 11.7949 14.9468C12.1934 14.7886 12.5156 14.5806 12.7617 14.3228C13.0078 14.0649 13.1924 13.7397 13.3154 13.3472C13.4385 12.9546 13.5 12.4946 13.5 11.9673V6.58838ZM3.97266 9.50635C3.97266 9.354 4.02539 9.2251 4.13086 9.11963C4.23633 9.01416 4.36523 8.96143 4.51758 8.96143C4.66992 8.96143 4.79883 9.01416 4.9043 9.11963C5.00977 9.2251 5.0625 9.354 5.0625 9.50635C5.0625 9.64697 5.00977 9.77002 4.9043 9.87549C4.79883 9.98096 4.66992 10.0337 4.51758 10.0337C4.36523 10.0337 4.23633 9.98096 4.13086 9.87549C4.02539 9.77002 3.97266 9.64697 3.97266 9.50635ZM6.75 9.50635C6.75 9.354 6.80273 9.2251 6.9082 9.11963C7.01367 9.01416 7.14258 8.96143 7.29492 8.96143C7.44727 8.96143 7.57617 9.01416 7.68164 9.11963C7.78711 9.2251 7.83984 9.354 7.83984 9.50635C7.83984 9.64697 7.78711 9.77002 7.68164 9.87549C7.57617 9.98096 7.44727 10.0337 7.29492 10.0337C7.14258 10.0337 7.01367 9.98096 6.9082 9.87549C6.80273 9.77002 6.75 9.64697 6.75 9.50635ZM9.52734 9.50635C9.52734 9.354 9.58008 9.2251 9.68555 9.11963C9.79102 9.01416 9.91992 8.96143 10.0723 8.96143C10.2246 8.96143 10.3535 9.01416 10.459 9.11963C10.5645 9.2251 10.6172 9.354 10.6172 9.50635C10.6172 9.64697 10.5645 9.77002 10.459 9.87549C10.3535 9.98096 10.2246 10.0337 10.0723 10.0337C9.91992 10.0337 9.79102 9.98096 9.68555 9.87549C9.58008 9.77002 9.52734 9.64697 9.52734 9.50635ZM3.97266 11.7563C3.97266 11.604 4.02539 11.4751 4.13086 11.3696C4.23633 11.2642 4.36523 11.2114 4.51758 11.2114C4.66992 11.2114 4.79883 11.2642 4.9043 11.3696C5.00977 11.4751 5.0625 11.604 5.0625 11.7563C5.0625 11.897 5.00977 12.02 4.9043 12.1255C4.79883 12.231 4.66992 12.2837 4.51758 12.2837C4.36523 12.2837 4.23633 12.231 4.13086 12.1255C4.02539 12.02 3.97266 11.897 3.97266 11.7563ZM6.75 11.7563C6.75 11.604 6.80273 11.4751 6.9082 11.3696C7.01367 11.2642 7.14258 11.2114 7.29492 11.2114C7.44727 11.2114 7.57617 11.2642 7.68164 11.3696C7.78711 11.4751 7.83984 11.604 7.83984 11.7563C7.83984 11.897 7.78711 12.02 7.68164 12.1255C7.57617 12.231 7.44727 12.2837 7.29492 12.2837C7.14258 12.2837 7.01367 12.231 6.9082 12.1255C6.80273 12.02 6.75 11.897 6.75 11.7563ZM9.52734 11.7563C9.52734 11.604 9.58008 11.4751 9.68555 11.3696C9.79102 11.2642 9.91992 11.2114 10.0723 11.2114C10.2246 11.2114 10.3535 11.2642 10.459 11.3696C10.5645 11.4751 10.6172 11.604 10.6172 11.7563C10.6172 11.897 10.5645 12.02 10.459 12.1255C10.3535 12.231 10.2246 12.2837 10.0723 12.2837C9.91992 12.2837 9.79102 12.231 9.68555 12.1255C9.58008 12.02 9.52734 11.897 9.52734 11.7563Z" fill="#474747"/>
</svg>
